<svg width="215" height="71" viewBox="0 0 215 71" fill="none" xmlns="http://www.w3.org/2000/svg">
<g filter="url(#filter0_di_101_617)">
<circle cx="184" cy="27" r="12" fill="#56CCF2"/>
</g>
<rect x="181.391" y="20.2173" width="5.21739" height="13.5652" rx="0.782609" fill="white"/>
<rect x="190.782" y="24.3911" width="5.21739" height="13.5652" rx="0.782609" transform="rotate(90 190.782 24.3911)" fill="white"/>
<path d="M20.736 35.164V57.5H16.256V47.996H6.688V57.5H2.208V35.164H6.688V44.348H16.256V35.164H20.736ZM41.6255 48.252C41.6255 48.892 41.5828 49.468 41.4975 49.98H28.5375C28.6442 51.26 29.0922 52.2627 29.8815 52.988C30.6708 53.7133 31.6415 54.076 32.7935 54.076C34.4575 54.076 35.6415 53.3613 36.3455 51.932H41.1775C40.6655 53.6387 39.6842 55.0467 38.2335 56.156C36.7828 57.244 35.0015 57.788 32.8895 57.788C31.1828 57.788 29.6468 57.4147 28.2815 56.668C26.9375 55.9 25.8815 54.8227 25.1135 53.436C24.3668 52.0493 23.9935 50.4493 23.9935 48.636C23.9935 46.8013 24.3668 45.1907 25.1135 43.804C25.8602 42.4173 26.9055 41.3507 28.2495 40.604C29.5935 39.8573 31.1402 39.484 32.8895 39.484C34.5748 39.484 36.0788 39.8467 37.4015 40.572C38.7455 41.2973 39.7802 42.332 40.5055 43.676C41.2522 44.9987 41.6255 46.524 41.6255 48.252ZM36.9855 46.972C36.9642 45.82 36.5482 44.9027 35.7375 44.22C34.9268 43.516 33.9348 43.164 32.7615 43.164C31.6522 43.164 30.7135 43.5053 29.9455 44.188C29.1988 44.8493 28.7402 45.7773 28.5695 46.972H36.9855ZM43.7435 48.572C43.7435 46.78 44.0955 45.1907 44.7995 43.804C45.5248 42.4173 46.4955 41.3507 47.7115 40.604C48.9488 39.8573 50.3248 39.484 51.8395 39.484C53.1622 39.484 54.3142 39.7507 55.2955 40.284C56.2982 40.8173 57.0982 41.4893 57.6955 42.3V39.772H62.2075V57.5H57.6955V54.908C57.1195 55.74 56.3195 56.4333 55.2955 56.988C54.2928 57.5213 53.1302 57.788 51.8075 57.788C50.3142 57.788 48.9488 57.404 47.7115 56.636C46.4955 55.868 45.5248 54.7907 44.7995 53.404C44.0955 51.996 43.7435 50.3853 43.7435 48.572ZM57.6955 48.636C57.6955 47.548 57.4822 46.62 57.0555 45.852C56.6288 45.0627 56.0528 44.4653 55.3275 44.06C54.6022 43.6333 53.8235 43.42 52.9915 43.42C52.1595 43.42 51.3915 43.6227 50.6875 44.028C49.9835 44.4333 49.4075 45.0307 48.9595 45.82C48.5328 46.588 48.3195 47.5053 48.3195 48.572C48.3195 49.6387 48.5328 50.5773 48.9595 51.388C49.4075 52.1773 49.9835 52.7853 50.6875 53.212C51.4128 53.6387 52.1808 53.852 52.9915 53.852C53.8235 53.852 54.6022 53.6493 55.3275 53.244C56.0528 52.8173 56.6288 52.22 57.0555 51.452C57.4822 50.6627 57.6955 49.724 57.6955 48.636ZM71.063 33.82V57.5H66.583V33.82H71.063ZM80.7053 43.452V52.028C80.7053 52.6253 80.8439 53.0627 81.1213 53.34C81.4199 53.596 81.9106 53.724 82.5933 53.724H84.6733V57.5H81.8573C78.0813 57.5 76.1933 55.6653 76.1933 51.996V43.452H74.0813V39.772H76.1933V35.388H80.7053V39.772H84.6733V43.452H80.7053ZM97.8795 39.516C99.2235 39.516 100.418 39.8147 101.464 40.412C102.509 40.988 103.32 41.852 103.896 43.004C104.493 44.1347 104.792 45.5 104.792 47.1V57.5H100.312V47.708C100.312 46.3 99.9595 45.2227 99.2555 44.476C98.5515 43.708 97.5915 43.324 96.3755 43.324C95.1382 43.324 94.1568 43.708 93.4315 44.476C92.7275 45.2227 92.3755 46.3 92.3755 47.708V57.5H87.8955V33.82H92.3755V41.98C92.9515 41.212 93.7195 40.6147 94.6795 40.188C95.6395 39.74 96.7062 39.516 97.8795 39.516ZM126.012 39.772L115.036 65.884H110.268L114.108 57.052L107.004 39.772H112.028L116.604 52.156L121.244 39.772H126.012ZM136.948 52.444C138.996 50.7373 140.628 49.3187 141.844 48.188C143.06 47.036 144.073 45.8413 144.884 44.604C145.694 43.3667 146.1 42.1507 146.1 40.956C146.1 39.868 145.844 39.0147 145.332 38.396C144.82 37.7773 144.03 37.468 142.964 37.468C141.897 37.468 141.076 37.8307 140.5 38.556C139.924 39.26 139.625 40.2307 139.604 41.468H135.252C135.337 38.908 136.094 36.9667 137.524 35.644C138.974 34.3213 140.809 33.66 143.028 33.66C145.46 33.66 147.326 34.3107 148.628 35.612C149.929 36.892 150.58 38.588 150.58 40.7C150.58 42.364 150.132 43.9533 149.236 45.468C148.34 46.9827 147.316 48.3053 146.164 49.436C145.012 50.5453 143.508 51.8893 141.652 53.468H151.092V57.18H135.284V53.852L136.948 52.444ZM153.723 52.956V49.436L164.187 34.46H169.403V49.052H172.219V52.956H169.403V57.5H164.923V52.956H153.723ZM165.211 39.26L158.651 49.052H165.211V39.26ZM177.567 57.724C176.756 57.724 176.084 57.4787 175.551 56.988C175.039 56.476 174.783 55.8467 174.783 55.1C174.783 54.3533 175.039 53.7347 175.551 53.244C176.084 52.732 176.756 52.476 177.567 52.476C178.356 52.476 179.007 52.732 179.519 53.244C180.031 53.7347 180.287 54.3533 180.287 55.1C180.287 55.8467 180.031 56.476 179.519 56.988C179.007 57.4787 178.356 57.724 177.567 57.724Z" fill="#192252"/>
<defs>
<filter id="filter0_di_101_617" x="153" y="0" width="62" height="62" filterUnits="userSpaceOnUse" color-interpolation-filters="sRGB">
<feFlood flood-opacity="0" result="BackgroundImageFix"/>
<feColorMatrix in="SourceAlpha" type="matrix" values="0 0 0 0 0 0 0 0 0 0 0 0 0 0 0 0 0 0 127 0" result="hardAlpha"/>
<feOffset dy="4"/>
<feGaussianBlur stdDeviation="9.5"/>
<feComposite in2="hardAlpha" operator="out"/>
<feColorMatrix type="matrix" values="0 0 0 0 0.0862745 0 0 0 0 0.470588 0 0 0 0 0.94902 0 0 0 0.2 0"/>
<feBlend mode="normal" in2="BackgroundImageFix" result="effect1_dropShadow_101_617"/>
<feBlend mode="normal" in="SourceGraphic" in2="effect1_dropShadow_101_617" result="shape"/>
<feColorMatrix in="SourceAlpha" type="matrix" values="0 0 0 0 0 0 0 0 0 0 0 0 0 0 0 0 0 0 127 0" result="hardAlpha"/>
<feOffset dy="4"/>
<feGaussianBlur stdDeviation="2"/>
<feComposite in2="hardAlpha" operator="arithmetic" k2="-1" k3="1"/>
<feColorMatrix type="matrix" values="0 0 0 0 0 0 0 0 0 0 0 0 0 0 0 0 0 0 0.12 0"/>
<feBlend mode="normal" in2="shape" result="effect2_innerShadow_101_617"/>
</filter>
</defs>
</svg>
