<svg width="414" height="519" viewBox="0 0 414 519" fill="none" xmlns="http://www.w3.org/2000/svg">
<rect x="0.5" y="0.5" width="412.75" height="517.212" rx="7.89" fill="white" stroke="#DFE8F6"/>
<path d="M19.2474 82.7271C18.6821 82.7271 18.1741 82.6288 17.7235 82.4322C17.281 82.2274 16.9328 81.9488 16.6789 81.5965C16.4249 81.236 16.2938 80.8223 16.2856 80.3552H17.4777C17.5186 80.7567 17.6825 81.0967 17.9693 81.3753C18.2642 81.6457 18.6903 81.7808 19.2474 81.7808C19.7799 81.7808 20.1978 81.6498 20.5009 81.3876C20.8123 81.1172 20.9679 80.7731 20.9679 80.3552C20.9679 80.0275 20.8778 79.7612 20.6976 79.5564C20.5173 79.3516 20.292 79.1959 20.0216 79.0894C19.7513 78.9829 19.3867 78.8682 18.9279 78.7453C18.3625 78.5978 17.9078 78.4504 17.5637 78.3029C17.2278 78.1554 16.9369 77.926 16.6911 77.6147C16.4535 77.2951 16.3347 76.8691 16.3347 76.3365C16.3347 75.8695 16.4535 75.4558 16.6911 75.0953C16.9287 74.7348 17.2606 74.4562 17.6866 74.2596C18.1208 74.063 18.6165 73.9647 19.1736 73.9647C19.9766 73.9647 20.632 74.1654 21.14 74.5668C21.6561 74.9683 21.947 75.5009 22.0125 76.1645H20.7836C20.7426 75.8368 20.5706 75.55 20.2674 75.3042C19.9643 75.0502 19.5628 74.9232 19.063 74.9232C18.596 74.9232 18.2151 75.0461 17.9201 75.2919C17.6252 75.5295 17.4777 75.8654 17.4777 76.2997C17.4777 76.611 17.5637 76.865 17.7358 77.0616C17.916 77.2583 18.1331 77.4098 18.3871 77.5163C18.6493 77.6147 19.0139 77.7294 19.4809 77.8605C20.0462 78.0161 20.5009 78.1718 20.845 78.3275C21.1891 78.4749 21.4841 78.7084 21.7299 79.028C21.9757 79.3393 22.0986 79.7653 22.0986 80.3061C22.0986 80.7239 21.988 81.1172 21.7668 81.4859C21.5455 81.8546 21.2178 82.1536 20.7836 82.383C20.3494 82.6124 19.8373 82.7271 19.2474 82.7271ZM29.9506 79.0157C29.9506 79.2287 29.9383 79.454 29.9137 79.6916H24.5309C24.5718 80.3552 24.7971 80.8755 25.2068 81.2524C25.6246 81.6211 26.1285 81.8054 26.7184 81.8054C27.2018 81.8054 27.6033 81.6948 27.9228 81.4736C28.2505 81.2442 28.4799 80.9411 28.611 80.5642H29.8154C29.6351 81.2114 29.2746 81.7399 28.7339 82.1495C28.1932 82.551 27.5213 82.7517 26.7184 82.7517C26.0793 82.7517 25.5058 82.6083 24.9979 82.3216C24.4981 82.0348 24.1048 81.6293 23.8181 81.1049C23.5313 80.5724 23.3879 79.9579 23.3879 79.2615C23.3879 78.5651 23.5272 77.9547 23.8058 77.4303C24.0843 76.906 24.4735 76.5045 24.9733 76.2259C25.4813 75.9392 26.063 75.7958 26.7184 75.7958C27.3575 75.7958 27.9228 75.9351 28.4144 76.2137C28.906 76.4922 29.2828 76.8773 29.545 77.3689C29.8154 77.8523 29.9506 78.4012 29.9506 79.0157ZM28.7954 78.7822C28.7954 78.3561 28.7011 77.9915 28.5127 77.6884C28.3243 77.3771 28.0662 77.1436 27.7384 76.9879C27.4189 76.824 27.0625 76.7421 26.6693 76.7421C26.1039 76.7421 25.6205 76.9224 25.2191 77.2828C24.8258 77.6433 24.6005 78.1431 24.5431 78.7822H28.7954ZM32.6066 77.1477C32.8278 76.7626 33.1555 76.4431 33.5897 76.1891C34.0322 75.9269 34.5442 75.7958 35.1259 75.7958C35.724 75.7958 36.2648 75.9392 36.7482 76.2259C37.2397 76.5127 37.6248 76.9183 37.9034 77.4426C38.182 77.9588 38.3212 78.561 38.3212 79.2492C38.3212 79.9292 38.182 80.5355 37.9034 81.068C37.6248 81.6006 37.2397 82.0143 36.7482 82.3093C36.2648 82.6042 35.724 82.7517 35.1259 82.7517C34.5524 82.7517 34.0445 82.6247 33.602 82.3707C33.1678 82.1086 32.836 81.7849 32.6066 81.3999V85.8364H31.4882V75.9064H32.6066V77.1477ZM37.1783 79.2492C37.1783 78.7412 37.0759 78.2988 36.8711 77.9219C36.6662 77.545 36.3877 77.2583 36.0354 77.0616C35.6913 76.865 35.3103 76.7667 34.8924 76.7667C34.4828 76.7667 34.1018 76.8691 33.7495 77.0739C33.4054 77.2706 33.1268 77.5614 32.9138 77.9465C32.709 78.3234 32.6066 78.7617 32.6066 79.2615C32.6066 79.7694 32.709 80.216 32.9138 80.601C33.1268 80.9779 33.4054 81.2688 33.7495 81.4736C34.1018 81.6702 34.4828 81.7686 34.8924 81.7686C35.3103 81.7686 35.6913 81.6702 36.0354 81.4736C36.3877 81.2688 36.6662 80.9779 36.8711 80.601C37.0759 80.216 37.1783 79.7653 37.1783 79.2492ZM41.2189 76.8281V80.7977C41.2189 81.1254 41.2885 81.3589 41.4278 81.4982C41.5671 81.6293 41.8088 81.6948 42.1529 81.6948H42.9763V82.6411H41.9686C41.3459 82.6411 40.8789 82.4977 40.5675 82.211C40.2562 81.9242 40.1005 81.4531 40.1005 80.7977V76.8281H39.228V75.9064H40.1005V74.2104H41.2189V75.9064H42.9763V76.8281H41.2189ZM50.5376 79.0157C50.5376 79.2287 50.5253 79.454 50.5007 79.6916H45.1179C45.1588 80.3552 45.3841 80.8755 45.7938 81.2524C46.2116 81.6211 46.7155 81.8054 47.3054 81.8054C47.7888 81.8054 48.1903 81.6948 48.5098 81.4736C48.8375 81.2442 49.0669 80.9411 49.198 80.5642H50.4024C50.2221 81.2114 49.8617 81.7399 49.3209 82.1495C48.7802 82.551 48.1083 82.7517 47.3054 82.7517C46.6664 82.7517 46.0928 82.6083 45.5849 82.3216C45.0851 82.0348 44.6918 81.6293 44.4051 81.1049C44.1183 80.5724 43.9749 79.9579 43.9749 79.2615C43.9749 78.5651 44.1142 77.9547 44.3928 77.4303C44.6713 76.906 45.0605 76.5045 45.5603 76.2259C46.0683 75.9392 46.65 75.7958 47.3054 75.7958C47.9445 75.7958 48.5098 75.9351 49.0014 76.2137C49.493 76.4922 49.8698 76.8773 50.132 77.3689C50.4024 77.8523 50.5376 78.4012 50.5376 79.0157ZM49.3824 78.7822C49.3824 78.3561 49.2881 77.9915 49.0997 77.6884C48.9113 77.3771 48.6532 77.1436 48.3255 76.9879C48.0059 76.824 47.6495 76.7421 47.2563 76.7421C46.6909 76.7421 46.2075 76.9224 45.8061 77.2828C45.4128 77.6433 45.1875 78.1431 45.1302 78.7822H49.3824ZM60.1741 75.7835C60.6984 75.7835 61.1654 75.8941 61.5751 76.1153C61.9847 76.3284 62.3084 76.652 62.546 77.0862C62.7836 77.5204 62.9024 78.0489 62.9024 78.6716V82.6411H61.7963V78.8313C61.7963 78.1595 61.6283 77.6474 61.2924 77.2951C60.9647 76.9346 60.5182 76.7544 59.9529 76.7544C59.3711 76.7544 58.9082 76.9428 58.5641 77.3197C58.22 77.6884 58.048 78.225 58.048 78.9297V82.6411H56.9419V78.8313C56.9419 78.1595 56.7739 77.6474 56.438 77.2951C56.1103 76.9346 55.6638 76.7544 55.0985 76.7544C54.5168 76.7544 54.0538 76.9428 53.7097 77.3197C53.3656 77.6884 53.1936 78.225 53.1936 78.9297V82.6411H52.0752V75.9064H53.1936V76.8773C53.4148 76.525 53.7097 76.2546 54.0784 76.0662C54.4553 75.8777 54.8691 75.7835 55.3197 75.7835C55.885 75.7835 56.3848 75.9105 56.819 76.1645C57.2532 76.4185 57.5769 76.7913 57.7899 77.2828C57.9783 76.8076 58.2897 76.439 58.7239 76.1768C59.1581 75.9146 59.6415 75.7835 60.1741 75.7835ZM65.9167 77.1599C66.1461 76.7585 66.482 76.4308 66.9244 76.1768C67.3669 75.9228 67.8707 75.7958 68.436 75.7958C69.0423 75.7958 69.5872 75.9392 70.0706 76.2259C70.554 76.5127 70.9349 76.9183 71.2135 77.4426C71.4921 77.9588 71.6313 78.561 71.6313 79.2492C71.6313 79.9292 71.4921 80.5355 71.2135 81.068C70.9349 81.6006 70.5499 82.0143 70.0583 82.3093C69.5749 82.6042 69.0341 82.7517 68.436 82.7517C67.8543 82.7517 67.3423 82.6247 66.8998 82.3707C66.4656 82.1168 66.1379 81.7931 65.9167 81.3999V82.6411H64.7983V73.5468H65.9167V77.1599ZM70.4884 79.2492C70.4884 78.7412 70.386 78.2988 70.1812 77.9219C69.9763 77.545 69.6978 77.2583 69.3455 77.0616C69.0014 76.865 68.6204 76.7667 68.2025 76.7667C67.7929 76.7667 67.4119 76.8691 67.0596 77.0739C66.7155 77.2706 66.4369 77.5614 66.2239 77.9465C66.0191 78.3234 65.9167 78.7617 65.9167 79.2615C65.9167 79.7694 66.0191 80.216 66.2239 80.601C66.4369 80.9779 66.7155 81.2688 67.0596 81.4736C67.4119 81.6702 67.7929 81.7686 68.2025 81.7686C68.6204 81.7686 69.0014 81.6702 69.3455 81.4736C69.6978 81.2688 69.9763 80.9779 70.1812 80.601C70.386 80.216 70.4884 79.7653 70.4884 79.2492ZM79.3097 79.0157C79.3097 79.2287 79.2974 79.454 79.2728 79.6916H73.8899C73.9309 80.3552 74.1562 80.8755 74.5659 81.2524C74.9837 81.6211 75.4876 81.8054 76.0775 81.8054C76.5609 81.8054 76.9623 81.6948 77.2819 81.4736C77.6096 81.2442 77.839 80.9411 77.9701 80.5642H79.1745C78.9942 81.2114 78.6337 81.7399 78.093 82.1495C77.5522 82.551 76.8804 82.7517 76.0775 82.7517C75.4384 82.7517 74.8649 82.6083 74.3569 82.3216C73.8572 82.0348 73.4639 81.6293 73.1771 81.1049C72.8904 80.5724 72.747 79.9579 72.747 79.2615C72.747 78.5651 72.8863 77.9547 73.1649 77.4303C73.4434 76.906 73.8326 76.5045 74.3324 76.2259C74.8403 75.9392 75.422 75.7958 76.0775 75.7958C76.7166 75.7958 77.2819 75.9351 77.7735 76.2137C78.265 76.4922 78.6419 76.8773 78.9041 77.3689C79.1745 77.8523 79.3097 78.4012 79.3097 79.0157ZM78.1544 78.7822C78.1544 78.3561 78.0602 77.9915 77.8718 77.6884C77.6833 77.3771 77.4253 77.1436 77.0975 76.9879C76.778 76.824 76.4216 76.7421 76.0283 76.7421C75.463 76.7421 74.9796 76.9224 74.5782 77.2828C74.1849 77.6433 73.9596 78.1431 73.9022 78.7822H78.1544ZM81.9657 77.0002C82.1623 76.6151 82.4409 76.3161 82.8013 76.103C83.17 75.89 83.6166 75.7835 84.1409 75.7835V76.9387H83.846C82.5924 76.9387 81.9657 77.6188 81.9657 78.9788V82.6411H80.8473V75.9064H81.9657V77.0002ZM88.5117 81.744C89.5522 80.9083 90.3674 80.2242 90.9573 79.6916C91.5472 79.1509 92.0429 78.5896 92.4444 78.0079C92.854 77.418 93.0588 76.8404 93.0588 76.2751C93.0588 75.7425 92.9278 75.3247 92.6656 75.0216C92.4116 74.7102 91.9978 74.5546 91.4243 74.5546C90.8672 74.5546 90.433 74.7307 90.1216 75.083C89.8185 75.4271 89.6546 75.89 89.63 76.4717H88.5486C88.5813 75.5541 88.8599 74.8454 89.3843 74.3456C89.9086 73.8459 90.5845 73.596 91.412 73.596C92.2559 73.596 92.9237 73.8295 93.4152 74.2965C93.915 74.7635 94.1649 75.4066 94.1649 76.2259C94.1649 76.906 93.9601 77.5696 93.5504 78.2169C93.149 78.8559 92.6902 79.4212 92.174 79.9128C91.6578 80.3962 90.9983 80.9615 90.1954 81.6088H94.423V82.5428H88.5117V81.744ZM95.7772 78.1062C95.7772 76.697 96.0067 75.5992 96.4655 74.8126C96.9243 74.0179 97.7272 73.6205 98.8742 73.6205C100.013 73.6205 100.812 74.0179 101.271 74.8126C101.73 75.5992 101.959 76.697 101.959 78.1062C101.959 79.54 101.73 80.6543 101.271 81.449C100.812 82.2437 100.013 82.6411 98.8742 82.6411C97.7272 82.6411 96.9243 82.2437 96.4655 81.449C96.0067 80.6543 95.7772 79.54 95.7772 78.1062ZM100.853 78.1062C100.853 77.3935 100.804 76.7913 100.705 76.2997C100.615 75.7999 100.423 75.3984 100.128 75.0953C99.841 74.7922 99.4232 74.6406 98.8742 74.6406C98.3171 74.6406 97.8911 74.7922 97.5961 75.0953C97.3093 75.3984 97.1168 75.7999 97.0185 76.2997C96.9284 76.7913 96.8833 77.3935 96.8833 78.1062C96.8833 78.8436 96.9284 79.4622 97.0185 79.962C97.1168 80.4618 97.3093 80.8632 97.5961 81.1664C97.8911 81.4695 98.3171 81.6211 98.8742 81.6211C99.4232 81.6211 99.841 81.4695 100.128 81.1664C100.423 80.8632 100.615 80.4618 100.705 79.962C100.804 79.4622 100.853 78.8436 100.853 78.1062ZM103.421 81.744C104.461 80.9083 105.276 80.2242 105.866 79.6916C106.456 79.1509 106.952 78.5896 107.353 78.0079C107.763 77.418 107.968 76.8404 107.968 76.2751C107.968 75.7425 107.837 75.3247 107.574 75.0216C107.32 74.7102 106.907 74.5546 106.333 74.5546C105.776 74.5546 105.342 74.7307 105.03 75.083C104.727 75.4271 104.563 75.89 104.539 76.4717H103.457C103.49 75.5541 103.769 74.8454 104.293 74.3456C104.817 73.8459 105.493 73.596 106.321 73.596C107.165 73.596 107.832 73.8295 108.324 74.2965C108.824 74.7635 109.074 75.4066 109.074 76.2259C109.074 76.906 108.869 77.5696 108.459 78.2169C108.058 78.8559 107.599 79.4212 107.083 79.9128C106.567 80.3962 105.907 80.9615 105.104 81.6088H109.332V82.5428H103.421V81.744ZM110.551 81.744C111.591 80.9083 112.407 80.2242 112.997 79.6916C113.586 79.1509 114.082 78.5896 114.484 78.0079C114.893 77.418 115.098 76.8404 115.098 76.2751C115.098 75.7425 114.967 75.3247 114.705 75.0216C114.451 74.7102 114.037 74.5546 113.464 74.5546C112.906 74.5546 112.472 74.7307 112.161 75.083C111.858 75.4271 111.694 75.89 111.669 76.4717H110.588C110.621 75.5541 110.899 74.8454 111.423 74.3456C111.948 73.8459 112.624 73.596 113.451 73.596C114.295 73.596 114.963 73.8295 115.454 74.2965C115.954 74.7635 116.204 75.4066 116.204 76.2259C116.204 76.906 115.999 77.5696 115.59 78.2169C115.188 78.8559 114.729 79.4212 114.213 79.9128C113.697 80.3962 113.037 80.9615 112.235 81.6088H116.462V82.5428H110.551V81.744Z" fill="#192252"/>
<path d="M347.429 73.5627C347.787 73.9185 347.788 74.4977 347.431 74.8548L344.683 77.6026C344.248 78.0383 344.248 78.7446 344.683 79.1802L347.431 81.9281C347.788 82.2851 347.787 82.8643 347.429 83.2201C347.072 83.5741 346.497 83.5731 346.141 83.2179L342.104 79.1802C341.668 78.7446 341.668 78.0383 342.104 77.6026L346.141 73.565C346.497 73.2097 347.072 73.2087 347.429 73.5627Z" fill="#848FAC"/>
<path d="M386.875 83.2205C386.516 82.8647 386.515 82.2855 386.873 81.9284L389.62 79.1806C390.056 78.7449 390.056 78.0386 389.62 77.603L386.873 74.8551C386.515 74.4981 386.516 73.9189 386.875 73.5631C387.231 73.2091 387.807 73.2101 388.162 73.5653L392.2 77.603C392.636 78.0386 392.636 78.7449 392.2 79.1806L388.162 83.2182C387.807 83.5735 387.231 83.5745 386.875 83.2205Z" fill="#848FAC"/>
<line x1="17.7368" y1="97.2563" x2="393.192" y2="97.2563" stroke="#DFE8F6" stroke-width="0.875169"/>
<path d="M36.8908 136.635C36.3876 136.635 35.9355 136.547 35.5344 136.372C35.1407 136.19 34.8308 135.942 34.6047 135.628C34.3786 135.308 34.262 134.939 34.2547 134.524H35.3157C35.3521 134.881 35.498 135.184 35.7532 135.431C36.0157 135.672 36.3949 135.792 36.8908 135.792C37.3648 135.792 37.7366 135.676 38.0065 135.442C38.2836 135.202 38.4221 134.896 38.4221 134.524C38.4221 134.232 38.3419 133.995 38.1815 133.813C38.021 133.63 37.8205 133.492 37.5799 133.397C37.3392 133.302 37.0147 133.2 36.6064 133.091C36.1032 132.959 35.6985 132.828 35.3922 132.697C35.0933 132.566 34.8344 132.362 34.6156 132.084C34.4042 131.8 34.2984 131.421 34.2984 130.947C34.2984 130.531 34.4042 130.163 34.6156 129.842C34.8271 129.521 35.1224 129.273 35.5016 129.098C35.8881 128.923 36.3293 128.836 36.8251 128.836C37.5398 128.836 38.1231 129.014 38.5752 129.372C39.0346 129.729 39.2935 130.203 39.3518 130.794H38.258C38.2216 130.502 38.0684 130.247 37.7986 130.028C37.5288 129.802 37.1715 129.689 36.7267 129.689C36.311 129.689 35.972 129.798 35.7095 130.017C35.4469 130.229 35.3157 130.528 35.3157 130.914C35.3157 131.191 35.3922 131.417 35.5454 131.592C35.7058 131.767 35.899 131.902 36.1251 131.997C36.3584 132.084 36.6829 132.187 37.0986 132.303C37.6017 132.442 38.0065 132.58 38.3127 132.719C38.619 132.85 38.8815 133.058 39.1003 133.342C39.319 133.619 39.4284 133.999 39.4284 134.48C39.4284 134.852 39.33 135.202 39.1331 135.53C38.9362 135.858 38.6445 136.124 38.258 136.328C37.8716 136.533 37.4158 136.635 36.8908 136.635ZM41.8667 128.934V133.758C41.8667 134.436 42.0307 134.939 42.3589 135.267C42.6943 135.596 43.1574 135.76 43.748 135.76C44.3314 135.76 44.7871 135.596 45.1153 135.267C45.4507 134.939 45.6184 134.436 45.6184 133.758V128.934H46.6138V133.747C46.6138 134.381 46.4862 134.917 46.231 135.355C45.9758 135.785 45.6294 136.106 45.1919 136.317C44.7616 136.529 44.2767 136.635 43.7371 136.635C43.1975 136.635 42.7089 136.529 42.2714 136.317C41.8411 136.106 41.4984 135.785 41.2432 135.355C40.9953 134.917 40.8713 134.381 40.8713 133.747V128.934H41.8667ZM54.2684 136.558H53.273L49.2696 130.487V136.558H48.2743V128.923H49.2696L53.273 134.983V128.923H54.2684V136.558Z" fill="#192252"/>
<path d="M94.9154 128.989V136.558H93.92V130.914L91.4043 136.558H90.7042L88.1775 130.903V136.558H87.1822V128.989H88.2541L91.0543 135.246L93.8544 128.989H94.9154ZM100.06 136.635C99.3526 136.635 98.7072 136.471 98.1239 136.142C97.5405 135.807 97.0774 135.344 96.7347 134.753C96.3993 134.155 96.2316 133.484 96.2316 132.741C96.2316 131.997 96.3993 131.33 96.7347 130.739C97.0774 130.141 97.5405 129.678 98.1239 129.35C98.7072 129.014 99.3526 128.847 100.06 128.847C100.775 128.847 101.424 129.014 102.007 129.35C102.59 129.678 103.05 130.137 103.385 130.728C103.721 131.319 103.888 131.99 103.888 132.741C103.888 133.492 103.721 134.163 103.385 134.753C103.05 135.344 102.59 135.807 102.007 136.142C101.424 136.471 100.775 136.635 100.06 136.635ZM100.06 135.771C100.592 135.771 101.07 135.647 101.493 135.399C101.923 135.151 102.258 134.797 102.499 134.338C102.747 133.878 102.871 133.346 102.871 132.741C102.871 132.128 102.747 131.596 102.499 131.144C102.258 130.684 101.927 130.331 101.504 130.083C101.081 129.835 100.6 129.711 100.06 129.711C99.5203 129.711 99.039 129.835 98.6161 130.083C98.1931 130.331 97.8577 130.684 97.6098 131.144C97.3691 131.596 97.2488 132.128 97.2488 132.741C97.2488 133.346 97.3691 133.878 97.6098 134.338C97.8577 134.797 98.1931 135.151 98.6161 135.399C99.0463 135.647 99.5276 135.771 100.06 135.771ZM111.196 136.558H110.201L106.198 130.487V136.558H105.202V128.923H106.198L110.201 134.983V128.923H111.196V136.558Z" fill="#192252"/>
<path d="M150.098 128.934V129.744H148.02V136.558H147.024V129.744H144.935V128.934H150.098ZM152.297 128.934V133.758C152.297 134.436 152.461 134.939 152.789 135.267C153.124 135.596 153.587 135.76 154.178 135.76C154.761 135.76 155.217 135.596 155.545 135.267C155.881 134.939 156.049 134.436 156.049 133.758V128.934H157.044V133.747C157.044 134.381 156.916 134.917 156.661 135.355C156.406 135.785 156.059 136.106 155.622 136.317C155.192 136.529 154.707 136.635 154.167 136.635C153.628 136.635 153.139 136.529 152.701 136.317C152.271 136.106 151.929 135.785 151.673 135.355C151.425 134.917 151.301 134.381 151.301 133.747V128.934H152.297ZM159.7 129.744V132.292H162.478V133.113H159.7V135.738H162.806V136.558H158.704V128.923H162.806V129.744H159.7Z" fill="#192252"/>
<path d="M207.253 128.934L205.043 136.558H203.927L202.155 130.422L200.318 136.558L199.213 136.569L197.08 128.934H198.141L199.804 135.399L201.641 128.934H202.757L204.507 135.377L206.181 128.934H207.253ZM209.337 129.744V132.292H212.115V133.113H209.337V135.738H212.444V136.558H208.342V128.923H212.444V129.744H209.337ZM216.323 128.934C217.155 128.934 217.873 129.091 218.478 129.405C219.091 129.711 219.557 130.152 219.878 130.728C220.206 131.304 220.37 131.982 220.37 132.763C220.37 133.543 220.206 134.221 219.878 134.797C219.557 135.366 219.091 135.803 218.478 136.11C217.873 136.409 217.155 136.558 216.323 136.558H213.95V128.934H216.323ZM216.323 135.738C217.308 135.738 218.059 135.479 218.577 134.961C219.094 134.436 219.353 133.703 219.353 132.763C219.353 131.815 219.091 131.074 218.566 130.542C218.048 130.01 217.3 129.744 216.323 129.744H214.945V135.738H216.323Z" fill="#192252"/>
<path d="M258.755 128.934V129.744H256.677V136.558H255.681V129.744H253.592V128.934H258.755ZM265.854 128.934V136.558H264.859V133.102H260.976V136.558H259.98V128.934H260.976V132.281H264.859V128.934H265.854ZM268.527 128.934V133.758C268.527 134.436 268.691 134.939 269.019 135.267C269.355 135.596 269.818 135.76 270.408 135.76C270.992 135.76 271.448 135.596 271.776 135.267C272.111 134.939 272.279 134.436 272.279 133.758V128.934H273.274V133.747C273.274 134.381 273.147 134.917 272.891 135.355C272.636 135.785 272.29 136.106 271.852 136.317C271.422 136.529 270.937 136.635 270.397 136.635C269.858 136.635 269.369 136.529 268.932 136.317C268.502 136.106 268.159 135.785 267.904 135.355C267.656 134.917 267.532 134.381 267.532 133.747V128.934H268.527Z" fill="#192252"/>
<path d="M316.2 128.934V129.744H312.886V132.314H315.577V133.124H312.886V136.558H311.89V128.934H316.2ZM321.417 136.558L319.601 133.441H318.398V136.558H317.402V128.934H319.863C320.439 128.934 320.924 129.033 321.318 129.23C321.719 129.426 322.018 129.693 322.215 130.028C322.412 130.363 322.51 130.746 322.51 131.177C322.51 131.702 322.357 132.165 322.051 132.566C321.752 132.967 321.3 133.233 320.695 133.364L322.609 136.558H321.417ZM318.398 132.642H319.863C320.403 132.642 320.808 132.511 321.077 132.248C321.347 131.979 321.482 131.621 321.482 131.177C321.482 130.724 321.347 130.374 321.077 130.126C320.815 129.879 320.41 129.755 319.863 129.755H318.398V132.642ZM325.052 128.934V136.558H324.057V128.934H325.052Z" fill="#192252"/>
<path d="M366.702 136.635C366.199 136.635 365.747 136.547 365.346 136.372C364.952 136.19 364.642 135.942 364.416 135.628C364.19 135.308 364.073 134.939 364.066 134.524H365.127C365.163 134.881 365.309 135.184 365.564 135.431C365.827 135.672 366.206 135.792 366.702 135.792C367.176 135.792 367.548 135.676 367.818 135.442C368.095 135.202 368.233 134.896 368.233 134.524C368.233 134.232 368.153 133.995 367.993 133.813C367.832 133.63 367.632 133.492 367.391 133.397C367.15 133.302 366.826 133.2 366.417 133.091C365.914 132.959 365.51 132.828 365.203 132.697C364.904 132.566 364.646 132.362 364.427 132.084C364.215 131.8 364.11 131.421 364.11 130.947C364.11 130.531 364.215 130.163 364.427 129.842C364.638 129.521 364.934 129.273 365.313 129.098C365.699 128.923 366.14 128.836 366.636 128.836C367.351 128.836 367.934 129.014 368.386 129.372C368.846 129.729 369.105 130.203 369.163 130.794H368.069C368.033 130.502 367.88 130.247 367.61 130.028C367.34 129.802 366.983 129.689 366.538 129.689C366.122 129.689 365.783 129.798 365.521 130.017C365.258 130.229 365.127 130.528 365.127 130.914C365.127 131.191 365.203 131.417 365.356 131.592C365.517 131.767 365.71 131.902 365.936 131.997C366.17 132.084 366.494 132.187 366.91 132.303C367.413 132.442 367.818 132.58 368.124 132.719C368.43 132.85 368.693 133.058 368.911 133.342C369.13 133.619 369.24 133.999 369.24 134.48C369.24 134.852 369.141 135.202 368.944 135.53C368.747 135.858 368.456 136.124 368.069 136.328C367.683 136.533 367.227 136.635 366.702 136.635ZM375.211 134.863H371.886L371.273 136.558H370.223L372.979 128.978H374.128L376.873 136.558H375.823L375.211 134.863ZM374.926 134.053L373.548 130.203L372.17 134.053H374.926ZM382.767 128.934V129.744H380.689V136.558H379.694V129.744H377.604V128.934H382.767Z" fill="#192252"/>
<g clip-path="url(#clip0_101_461)">
<path d="M263.711 167.706V166.435H266.59V177.506H265.181V167.706H263.711Z" fill="#192252"/>
</g>
<path d="M318.706 176.388C320.002 175.347 321.018 174.495 321.753 173.831C322.488 173.157 323.106 172.458 323.606 171.733C324.116 170.998 324.372 170.278 324.372 169.574C324.372 168.91 324.208 168.39 323.882 168.012C323.565 167.624 323.05 167.43 322.335 167.43C321.641 167.43 321.1 167.65 320.712 168.089C320.334 168.517 320.13 169.094 320.099 169.819H318.752C318.792 168.676 319.14 167.793 319.793 167.17C320.446 166.547 321.288 166.236 322.32 166.236C323.371 166.236 324.203 166.527 324.816 167.109C325.438 167.69 325.75 168.492 325.75 169.513C325.75 170.36 325.495 171.187 324.984 171.994C324.484 172.79 323.912 173.494 323.269 174.107C322.626 174.709 321.804 175.414 320.804 176.22H326.071V177.384H318.706V176.388Z" fill="#192252"/>
<path d="M375.483 169.222C375.554 168.283 375.917 167.548 376.57 167.017C377.224 166.486 378.071 166.22 379.112 166.22C379.806 166.22 380.404 166.348 380.904 166.603C381.414 166.848 381.797 167.185 382.052 167.614C382.318 168.043 382.451 168.528 382.451 169.069C382.451 169.702 382.267 170.248 381.899 170.707C381.542 171.167 381.072 171.463 380.49 171.595V171.672C381.154 171.835 381.68 172.157 382.068 172.637C382.456 173.117 382.65 173.744 382.65 174.52C382.65 175.102 382.517 175.628 382.251 176.098C381.986 176.557 381.588 176.919 381.057 177.185C380.526 177.45 379.888 177.583 379.143 177.583C378.061 177.583 377.172 177.302 376.478 176.741C375.784 176.169 375.396 175.362 375.314 174.321H376.662C376.734 174.934 376.984 175.434 377.412 175.822C377.841 176.21 378.413 176.404 379.128 176.404C379.842 176.404 380.383 176.22 380.751 175.853C381.128 175.475 381.317 174.99 381.317 174.398C381.317 173.632 381.062 173.081 380.552 172.744C380.041 172.407 379.27 172.239 378.239 172.239H377.887V171.075H378.255C379.194 171.065 379.903 170.911 380.383 170.615C380.863 170.309 381.103 169.839 381.103 169.207C381.103 168.665 380.924 168.232 380.567 167.905C380.22 167.578 379.72 167.415 379.066 167.415C378.433 167.415 377.923 167.578 377.535 167.905C377.147 168.232 376.917 168.671 376.846 169.222H375.483Z" fill="#192252"/>
<path d="M34.4033 218.734V217.678L39.7783 210.235H41.4474V217.525H42.9788V218.734H41.4474V221.2H40.0692V218.734H34.4033ZM40.1305 211.69L36.0112 217.525H40.1305V211.69Z" fill="#192252"/>
<path d="M98.5513 211.338H93.1763V214.829C93.4111 214.503 93.7582 214.237 94.2176 214.033C94.677 213.819 95.1721 213.711 95.703 213.711C96.5503 213.711 97.2394 213.89 97.7703 214.247C98.3011 214.595 98.6789 215.049 98.9035 215.61C99.1383 216.162 99.2557 216.749 99.2557 217.371C99.2557 218.106 99.1179 218.765 98.8422 219.347C98.5666 219.929 98.1429 220.388 97.5712 220.725C97.0097 221.062 96.3104 221.23 95.4733 221.23C94.4013 221.23 93.5336 220.955 92.87 220.403C92.2064 219.852 91.8032 219.117 91.6603 218.198H93.0231C93.1559 218.78 93.4366 219.234 93.8654 219.561C94.2942 219.888 94.8352 220.051 95.4886 220.051C96.2951 220.051 96.9025 219.811 97.3109 219.331C97.7192 218.841 97.9234 218.198 97.9234 217.402C97.9234 216.606 97.7192 215.993 97.3109 215.564C96.9025 215.125 96.3002 214.906 95.5039 214.906C94.9628 214.906 94.4881 215.039 94.0798 215.304C93.6816 215.559 93.3907 215.911 93.2069 216.361H91.89V210.113H98.5513V211.338Z" fill="#192252"/>
<path d="M154.354 212.762C154.129 211.629 153.43 211.062 152.256 211.062C151.347 211.062 150.668 211.414 150.219 212.119C149.77 212.813 149.551 213.962 149.561 215.564C149.796 215.034 150.184 214.62 150.725 214.324C151.276 214.018 151.888 213.865 152.562 213.865C153.614 213.865 154.451 214.191 155.074 214.845C155.707 215.498 156.023 216.402 156.023 217.555C156.023 218.249 155.885 218.872 155.61 219.423C155.344 219.975 154.936 220.414 154.385 220.74C153.843 221.067 153.185 221.23 152.409 221.23C151.358 221.23 150.536 220.996 149.944 220.526C149.352 220.056 148.938 219.408 148.703 218.581C148.468 217.754 148.351 216.733 148.351 215.518C148.351 211.772 149.658 209.898 152.271 209.898C153.272 209.898 154.058 210.169 154.63 210.71C155.201 211.251 155.538 211.935 155.64 212.762H154.354ZM152.271 215.044C151.832 215.044 151.419 215.136 151.031 215.319C150.643 215.493 150.326 215.763 150.081 216.131C149.847 216.488 149.729 216.927 149.729 217.448C149.729 218.224 149.954 218.857 150.403 219.347C150.852 219.827 151.495 220.067 152.333 220.067C153.047 220.067 153.614 219.847 154.032 219.408C154.461 218.959 154.675 218.357 154.675 217.601C154.675 216.805 154.471 216.182 154.063 215.733C153.655 215.273 153.057 215.044 152.271 215.044Z" fill="#192252"/>
<path d="M212.422 211.215L208.165 221.2H206.756L211.074 211.353H205.163V210.159H212.422V211.215Z" fill="#192252"/>
<path d="M263.722 215.442C263.151 215.217 262.712 214.891 262.405 214.462C262.099 214.033 261.946 213.512 261.946 212.9C261.946 212.349 262.084 211.853 262.36 211.414C262.635 210.965 263.044 210.613 263.585 210.358C264.136 210.092 264.799 209.96 265.575 209.96C266.351 209.96 267.01 210.092 267.551 210.358C268.102 210.613 268.516 210.965 268.791 211.414C269.077 211.853 269.22 212.349 269.22 212.9C269.22 213.492 269.062 214.013 268.745 214.462C268.429 214.901 267.995 215.227 267.444 215.442C268.077 215.636 268.577 215.978 268.944 216.468C269.322 216.948 269.511 217.53 269.511 218.214C269.511 218.877 269.348 219.459 269.021 219.959C268.694 220.449 268.23 220.832 267.627 221.108C267.035 221.373 266.351 221.506 265.575 221.506C264.799 221.506 264.115 221.373 263.523 221.108C262.941 220.832 262.487 220.449 262.16 219.959C261.834 219.459 261.67 218.877 261.67 218.214C261.67 217.53 261.854 216.943 262.222 216.453C262.589 215.963 263.089 215.626 263.722 215.442ZM267.872 213.068C267.872 212.446 267.668 211.966 267.26 211.629C266.851 211.292 266.29 211.124 265.575 211.124C264.871 211.124 264.315 211.292 263.906 211.629C263.498 211.966 263.294 212.451 263.294 213.084C263.294 213.655 263.503 214.115 263.922 214.462C264.35 214.809 264.902 214.982 265.575 214.982C266.259 214.982 266.811 214.809 267.229 214.462C267.658 214.105 267.872 213.64 267.872 213.068ZM265.575 216.054C264.82 216.054 264.202 216.233 263.722 216.59C263.243 216.937 263.003 217.463 263.003 218.168C263.003 218.821 263.232 219.347 263.692 219.745C264.161 220.143 264.789 220.342 265.575 220.342C266.361 220.342 266.984 220.143 267.444 219.745C267.903 219.347 268.133 218.821 268.133 218.168C268.133 217.484 267.898 216.963 267.428 216.606C266.959 216.238 266.341 216.054 265.575 216.054Z" fill="#192252"/>
<path d="M320.244 218.229C320.346 218.811 320.581 219.26 320.949 219.576C321.326 219.893 321.832 220.051 322.465 220.051C323.312 220.051 323.935 219.719 324.333 219.056C324.741 218.392 324.935 217.274 324.915 215.702C324.7 216.162 324.343 216.524 323.843 216.789C323.343 217.045 322.786 217.172 322.174 217.172C321.49 217.172 320.877 217.034 320.336 216.759C319.805 216.473 319.387 216.06 319.08 215.518C318.774 214.977 318.621 214.324 318.621 213.558C318.621 212.466 318.937 211.588 319.57 210.924C320.203 210.251 321.102 209.914 322.265 209.914C323.695 209.914 324.695 210.378 325.267 211.307C325.849 212.236 326.14 213.62 326.14 215.457C326.14 216.744 326.022 217.805 325.788 218.642C325.563 219.48 325.175 220.118 324.624 220.557C324.083 220.996 323.337 221.215 322.388 221.215C321.347 221.215 320.535 220.934 319.953 220.373C319.371 219.811 319.039 219.097 318.958 218.229H320.244ZM322.403 215.993C323.087 215.993 323.649 215.784 324.088 215.365C324.527 214.937 324.746 214.36 324.746 213.635C324.746 212.869 324.532 212.252 324.103 211.782C323.674 211.312 323.072 211.078 322.296 211.078C321.581 211.078 321.01 211.302 320.581 211.751C320.162 212.201 319.953 212.793 319.953 213.528C319.953 214.273 320.162 214.87 320.581 215.319C321 215.769 321.607 215.993 322.403 215.993Z" fill="#192252"/>
<path d="M372.389 211.399V210.128H375.267V221.2H373.859V211.399H372.389ZM377.661 215.549C377.661 213.793 377.947 212.425 378.519 211.445C379.09 210.455 380.091 209.96 381.52 209.96C382.939 209.96 383.935 210.455 384.506 211.445C385.078 212.425 385.364 213.793 385.364 215.549C385.364 217.336 385.078 218.724 384.506 219.714C383.935 220.705 382.939 221.2 381.52 221.2C380.091 221.2 379.09 220.705 378.519 219.714C377.947 218.724 377.661 217.336 377.661 215.549ZM383.986 215.549C383.986 214.661 383.924 213.911 383.802 213.298C383.689 212.675 383.45 212.175 383.082 211.797C382.725 211.42 382.204 211.231 381.52 211.231C380.826 211.231 380.295 211.42 379.928 211.797C379.57 212.175 379.33 212.675 379.208 213.298C379.095 213.911 379.039 214.661 379.039 215.549C379.039 216.468 379.095 217.239 379.208 217.861C379.33 218.484 379.57 218.984 379.928 219.362C380.295 219.74 380.826 219.929 381.52 219.929C382.204 219.929 382.725 219.74 383.082 219.362C383.45 218.984 383.689 218.484 383.802 217.861C383.924 217.239 383.986 216.468 383.986 215.549Z" fill="#192252"/>
<path d="M34.2829 255.093V253.822H37.1619V264.893H35.753V255.093H34.2829ZM39.188 255.093V253.822H42.0669V264.893H40.6581V255.093H39.188Z" fill="#192252"/>
<path d="M89.0755 255.093V253.822H91.9544V264.893H90.5456V255.093H89.0755ZM94.1797 263.775C95.4762 262.734 96.492 261.881 97.227 261.218C97.9621 260.544 98.5797 259.845 99.0799 259.12C99.5904 258.385 99.8456 257.665 99.8456 256.961C99.8456 256.297 99.6823 255.777 99.3556 255.399C99.0391 255.011 98.5235 254.817 97.8089 254.817C97.1147 254.817 96.5736 255.036 96.1857 255.475C95.808 255.904 95.6038 256.481 95.5732 257.206H94.2256C94.2664 256.062 94.6135 255.179 95.2669 254.557C95.9203 253.934 96.7625 253.622 97.7936 253.622C98.8451 253.622 99.6772 253.913 100.29 254.495C100.912 255.077 101.224 255.879 101.224 256.899C101.224 257.747 100.969 258.574 100.458 259.38C99.9579 260.177 99.3862 260.881 98.743 261.494C98.0999 262.096 97.2781 262.8 96.2776 263.607H101.545V264.771H94.1797V263.775Z" fill="#192252"/>
<path d="M145.714 255.093V253.822H148.593V264.893H147.184V255.093H145.714ZM150.956 256.609C151.027 255.669 151.39 254.934 152.043 254.403C152.697 253.873 153.544 253.607 154.585 253.607C155.279 253.607 155.877 253.735 156.377 253.99C156.887 254.235 157.27 254.572 157.525 255.001C157.791 255.429 157.924 255.914 157.924 256.455C157.924 257.088 157.74 257.635 157.372 258.094C157.015 258.553 156.545 258.849 155.963 258.982V259.059C156.627 259.222 157.153 259.544 157.541 260.023C157.929 260.503 158.123 261.131 158.123 261.907C158.123 262.489 157.99 263.015 157.724 263.484C157.459 263.944 157.061 264.306 156.53 264.571C155.999 264.837 155.361 264.97 154.616 264.97C153.534 264.97 152.646 264.689 151.951 264.127C151.257 263.556 150.869 262.749 150.788 261.708H152.135C152.207 262.32 152.457 262.821 152.885 263.209C153.314 263.597 153.886 263.791 154.601 263.791C155.315 263.791 155.856 263.607 156.224 263.239C156.601 262.861 156.79 262.377 156.79 261.784C156.79 261.019 156.535 260.468 156.025 260.131C155.514 259.794 154.743 259.625 153.712 259.625H153.36V258.461H153.728C154.667 258.451 155.376 258.298 155.856 258.002C156.336 257.696 156.576 257.226 156.576 256.593C156.576 256.052 156.397 255.618 156.04 255.292C155.693 254.965 155.193 254.802 154.539 254.802C153.906 254.802 153.396 254.965 153.008 255.292C152.62 255.618 152.39 256.057 152.319 256.609H150.956Z" fill="#192252"/>
<path d="M202.137 255.364V254.092H205.016V265.166H203.607V255.364H202.137ZM207.073 262.7V261.643L212.449 254.2H214.118V261.49H215.65V262.7H214.118V265.166H212.74V262.7H207.073ZM212.801 255.655L208.681 261.49H212.801V255.655Z" fill="#192252"/>
<circle cx="208.923" cy="277.54" r="4.09653" fill="#FF4C5E"/>
<circle cx="266.275" cy="232.478" r="4.09653" fill="#FF4C5E"/>
<path d="M258.903 255.093V253.822H261.782V264.893H260.374V255.093H258.903ZM271.235 255.031H265.86V258.523C266.095 258.196 266.442 257.931 266.902 257.726C267.361 257.512 267.856 257.405 268.387 257.405C269.235 257.405 269.924 257.583 270.455 257.941C270.985 258.288 271.363 258.742 271.588 259.304C271.822 259.855 271.94 260.442 271.94 261.065C271.94 261.8 271.802 262.458 271.526 263.04C271.251 263.622 270.827 264.081 270.255 264.418C269.694 264.755 268.995 264.924 268.157 264.924C267.086 264.924 266.218 264.648 265.554 264.097C264.891 263.545 264.487 262.81 264.344 261.892H265.707C265.84 262.474 266.121 262.928 266.55 263.255C266.978 263.581 267.519 263.745 268.173 263.745C268.979 263.745 269.587 263.505 269.995 263.025C270.403 262.535 270.608 261.892 270.608 261.095C270.608 260.299 270.403 259.687 269.995 259.258C269.587 258.819 268.984 258.599 268.188 258.599C267.647 258.599 267.172 258.732 266.764 258.997C266.366 259.253 266.075 259.605 265.891 260.054H264.574V253.806H271.235V255.031Z" fill="#192252"/>
<path d="M315.596 255.093V253.822H318.475V264.893H317.066V255.093H315.596ZM327.04 256.455C326.815 255.322 326.116 254.756 324.942 254.756C324.033 254.756 323.354 255.108 322.905 255.812C322.456 256.506 322.237 257.655 322.247 259.258C322.482 258.727 322.87 258.313 323.411 258.017C323.962 257.711 324.574 257.558 325.248 257.558C326.3 257.558 327.137 257.885 327.76 258.538C328.393 259.191 328.709 260.095 328.709 261.248C328.709 261.943 328.571 262.565 328.296 263.117C328.03 263.668 327.622 264.107 327.07 264.434C326.529 264.76 325.871 264.924 325.095 264.924C324.044 264.924 323.222 264.689 322.63 264.219C322.037 263.75 321.624 263.101 321.389 262.274C321.154 261.448 321.037 260.427 321.037 259.212C321.037 255.465 322.344 253.592 324.957 253.592C325.958 253.592 326.744 253.862 327.315 254.403C327.887 254.944 328.224 255.628 328.326 256.455H327.04ZM324.957 258.737C324.518 258.737 324.105 258.829 323.717 259.013C323.329 259.186 323.012 259.457 322.767 259.824C322.533 260.182 322.415 260.621 322.415 261.141C322.415 261.917 322.64 262.55 323.089 263.04C323.538 263.52 324.181 263.76 325.018 263.76C325.733 263.76 326.3 263.54 326.718 263.101C327.147 262.652 327.361 262.05 327.361 261.294C327.361 260.498 327.157 259.875 326.749 259.426C326.341 258.967 325.743 258.737 324.957 258.737Z" fill="#192252"/>
<path d="M372.223 255.716V254.445H375.102V265.518H373.693V255.716H372.223ZM384.311 255.532L380.054 265.518H378.645L382.964 255.67H377.052V254.475H384.311V255.532Z" fill="#192252"/>
<path d="M31.9052 298.785V297.514H34.7841V308.585H33.3753V298.785H31.9052ZM39.1991 302.828C38.6274 302.603 38.1884 302.276 37.8822 301.848C37.5759 301.419 37.4228 300.898 37.4228 300.286C37.4228 299.734 37.5606 299.239 37.8362 298.8C38.1119 298.351 38.5202 297.999 39.0613 297.744C39.6126 297.478 40.2762 297.345 41.052 297.345C41.8279 297.345 42.4864 297.478 43.0275 297.744C43.5787 297.999 43.9922 298.351 44.2678 298.8C44.5537 299.239 44.6966 299.734 44.6966 300.286C44.6966 300.878 44.5384 301.398 44.2219 301.848C43.9054 302.287 43.4716 302.613 42.9203 302.828C43.5532 303.022 44.0535 303.364 44.421 303.854C44.7987 304.333 44.9876 304.915 44.9876 305.599C44.9876 306.263 44.8242 306.845 44.4975 307.345C44.1709 307.835 43.7064 308.218 43.104 308.494C42.5119 308.759 41.8279 308.892 41.052 308.892C40.2762 308.892 39.5922 308.759 39.0001 308.494C38.4181 308.218 37.9638 307.835 37.6372 307.345C37.3105 306.845 37.1471 306.263 37.1471 305.599C37.1471 304.915 37.3309 304.328 37.6984 303.838C38.0659 303.348 38.5662 303.011 39.1991 302.828ZM43.349 300.454C43.349 299.831 43.1449 299.351 42.7365 299.015C42.3282 298.678 41.7667 298.509 41.052 298.509C40.3476 298.509 39.7912 298.678 39.3829 299.015C38.9745 299.351 38.7704 299.836 38.7704 300.469C38.7704 301.041 38.9796 301.5 39.3982 301.848C39.827 302.195 40.3783 302.368 41.052 302.368C41.736 302.368 42.2873 302.195 42.7059 301.848C43.1347 301.49 43.349 301.026 43.349 300.454ZM41.052 303.44C40.2966 303.44 39.6789 303.619 39.1991 303.976C38.7193 304.323 38.4794 304.849 38.4794 305.553C38.4794 306.207 38.7091 306.733 39.1685 307.131C39.6381 307.529 40.266 307.728 41.052 307.728C41.8381 307.728 42.4609 307.529 42.9203 307.131C43.3797 306.733 43.6094 306.207 43.6094 305.553C43.6094 304.869 43.3746 304.349 42.905 303.991C42.4353 303.624 41.8177 303.44 41.052 303.44Z" fill="#192252"/>
<path d="M88.6568 298.785V297.514H91.5357V308.585H90.1269V298.785H88.6568ZM95.721 305.615C95.8231 306.197 96.0579 306.646 96.4255 306.962C96.8032 307.279 97.3085 307.437 97.9415 307.437C98.7888 307.437 99.4116 307.105 99.8097 306.442C100.218 305.778 100.412 304.66 100.392 303.088C100.177 303.547 99.8199 303.91 99.3197 304.175C98.8194 304.43 98.2631 304.558 97.6505 304.558C96.9665 304.558 96.354 304.42 95.8129 304.145C95.2821 303.859 94.8635 303.445 94.5572 302.904C94.251 302.363 94.0978 301.71 94.0978 300.944C94.0978 299.852 94.4143 298.974 95.0473 298.31C95.6802 297.636 96.5786 297.3 97.7424 297.3C99.1717 297.3 100.172 297.764 100.744 298.693C101.326 299.622 101.617 301.005 101.617 302.843C101.617 304.129 101.499 305.191 101.264 306.028C101.04 306.865 100.652 307.503 100.101 307.942C99.5596 308.381 98.8143 308.601 97.8649 308.601C96.8236 308.601 96.012 308.32 95.4301 307.759C94.8482 307.197 94.5164 306.482 94.4347 305.615H95.721ZM97.8802 303.379C98.5642 303.379 99.1257 303.17 99.5647 302.751C100.004 302.322 100.223 301.745 100.223 301.021C100.223 300.255 100.009 299.637 99.58 299.168C99.1512 298.698 98.5489 298.463 97.773 298.463C97.0584 298.463 96.4867 298.688 96.0579 299.137C95.6394 299.586 95.4301 300.178 95.4301 300.913C95.4301 301.659 95.6394 302.256 96.0579 302.705C96.4765 303.154 97.0839 303.379 97.8802 303.379Z" fill="#192252"/>
<path d="M143.662 307.468C144.959 306.426 145.975 305.574 146.71 304.91C147.445 304.236 148.062 303.537 148.563 302.812C149.073 302.077 149.328 301.358 149.328 300.653C149.328 299.99 149.165 299.469 148.838 299.091C148.522 298.703 148.006 298.509 147.292 298.509C146.597 298.509 146.056 298.729 145.668 299.168C145.291 299.597 145.087 300.173 145.056 300.898H143.708C143.749 299.755 144.096 298.872 144.75 298.249C145.403 297.626 146.245 297.315 147.276 297.315C148.328 297.315 149.16 297.606 149.772 298.188C150.395 298.77 150.707 299.571 150.707 300.592C150.707 301.439 150.451 302.266 149.941 303.073C149.441 303.869 148.869 304.573 148.226 305.186C147.583 305.788 146.761 306.493 145.76 307.299H151.028V308.463H143.662V307.468ZM152.639 302.935C152.639 301.179 152.925 299.811 153.497 298.831C154.068 297.841 155.069 297.345 156.498 297.345C157.917 297.345 158.912 297.841 159.484 298.831C160.056 299.811 160.342 301.179 160.342 302.935C160.342 304.721 160.056 306.11 159.484 307.1C158.912 308.09 157.917 308.585 156.498 308.585C155.069 308.585 154.068 308.09 153.497 307.1C152.925 306.11 152.639 304.721 152.639 302.935ZM158.963 302.935C158.963 302.047 158.902 301.296 158.78 300.684C158.667 300.061 158.428 299.561 158.06 299.183C157.703 298.805 157.182 298.616 156.498 298.616C155.804 298.616 155.273 298.805 154.905 299.183C154.548 299.561 154.308 300.061 154.186 300.684C154.073 301.296 154.017 302.047 154.017 302.935C154.017 303.854 154.073 304.624 154.186 305.247C154.308 305.87 154.548 306.37 154.905 306.748C155.273 307.126 155.804 307.314 156.498 307.314C157.182 307.314 157.703 307.126 158.06 306.748C158.428 306.37 158.667 305.87 158.78 305.247C158.902 304.624 158.963 303.854 158.963 302.935Z" fill="#192252"/>
<path d="M202.762 307.468C204.058 306.426 205.074 305.574 205.809 304.91C206.544 304.236 207.162 303.537 207.662 302.812C208.173 302.077 208.428 301.358 208.428 300.653C208.428 299.99 208.265 299.469 207.938 299.091C207.621 298.703 207.106 298.509 206.391 298.509C205.697 298.509 205.156 298.729 204.768 299.168C204.39 299.597 204.186 300.173 204.155 300.898H202.808C202.849 299.755 203.196 298.872 203.849 298.249C204.503 297.626 205.345 297.315 206.376 297.315C207.427 297.315 208.259 297.606 208.872 298.188C209.495 298.77 209.806 299.571 209.806 300.592C209.806 301.439 209.551 302.266 209.04 303.073C208.54 303.869 207.968 304.573 207.325 305.186C206.682 305.788 205.86 306.493 204.86 307.299H210.128V308.463H202.762V307.468ZM211.371 298.785V297.514H214.25V308.585H212.841V298.785H211.371Z" fill="#192252"/>
<path d="M257.554 307.468C258.851 306.426 259.867 305.574 260.602 304.91C261.337 304.236 261.955 303.537 262.455 302.812C262.965 302.077 263.22 301.358 263.22 300.653C263.22 299.99 263.057 299.469 262.73 299.091C262.414 298.703 261.898 298.509 261.184 298.509C260.49 298.509 259.948 298.729 259.561 299.168C259.183 299.597 258.979 300.173 258.948 300.898H257.6C257.641 299.755 257.988 298.872 258.642 298.249C259.295 297.626 260.137 297.315 261.168 297.315C262.22 297.315 263.052 297.606 263.665 298.188C264.287 298.77 264.599 299.571 264.599 300.592C264.599 301.439 264.343 302.266 263.833 303.073C263.333 303.869 262.761 304.573 262.118 305.186C261.475 305.788 260.653 306.493 259.652 307.299H264.92V308.463H257.554V307.468ZM266.363 307.468C267.659 306.426 268.675 305.574 269.41 304.91C270.145 304.236 270.763 303.537 271.263 302.812C271.773 302.077 272.029 301.358 272.029 300.653C272.029 299.99 271.865 299.469 271.539 299.091C271.222 298.703 270.707 298.509 269.992 298.509C269.298 298.509 268.757 298.729 268.369 299.168C267.991 299.597 267.787 300.173 267.756 300.898H266.409C266.449 299.755 266.797 298.872 267.45 298.249C268.103 297.626 268.946 297.315 269.977 297.315C271.028 297.315 271.86 297.606 272.473 298.188C273.095 298.77 273.407 299.571 273.407 300.592C273.407 301.439 273.152 302.266 272.641 303.073C272.141 303.869 271.569 304.573 270.926 305.186C270.283 305.788 269.461 306.493 268.461 307.299H273.728V308.463H266.363V307.468Z" fill="#192252"/>
<path d="M314.194 307.468C315.49 306.426 316.506 305.574 317.241 304.91C317.976 304.236 318.594 303.537 319.094 302.812C319.605 302.077 319.86 301.358 319.86 300.653C319.86 299.99 319.697 299.469 319.37 299.091C319.053 298.703 318.538 298.509 317.823 298.509C317.129 298.509 316.588 298.729 316.2 299.168C315.822 299.597 315.618 300.173 315.587 300.898H314.24C314.281 299.755 314.628 298.872 315.281 298.249C315.935 297.626 316.777 297.315 317.808 297.315C318.859 297.315 319.691 297.606 320.304 298.188C320.927 298.77 321.238 299.571 321.238 300.592C321.238 301.439 320.983 302.266 320.472 303.073C319.972 303.869 319.4 304.573 318.757 305.186C318.114 305.788 317.292 306.493 316.292 307.299H321.56V308.463H314.194V307.468ZM323.14 300.301C323.211 299.362 323.574 298.627 324.227 298.096C324.881 297.565 325.728 297.3 326.769 297.3C327.463 297.3 328.061 297.427 328.561 297.682C329.071 297.927 329.454 298.264 329.709 298.693C329.975 299.122 330.108 299.607 330.108 300.148C330.108 300.781 329.924 301.327 329.556 301.786C329.199 302.246 328.729 302.542 328.147 302.674V302.751C328.811 302.914 329.337 303.236 329.725 303.716C330.113 304.196 330.307 304.823 330.307 305.599C330.307 306.181 330.174 306.707 329.908 307.177C329.643 307.636 329.245 307.998 328.714 308.264C328.183 308.529 327.545 308.662 326.8 308.662C325.718 308.662 324.83 308.381 324.135 307.82C323.441 307.248 323.053 306.442 322.971 305.4H324.319C324.391 306.013 324.641 306.513 325.069 306.901C325.498 307.289 326.07 307.483 326.785 307.483C327.499 307.483 328.04 307.299 328.408 306.932C328.785 306.554 328.974 306.069 328.974 305.477C328.974 304.711 328.719 304.16 328.209 303.823C327.698 303.486 326.927 303.318 325.896 303.318H325.544V302.154H325.912C326.851 302.144 327.56 301.99 328.04 301.694C328.52 301.388 328.76 300.919 328.76 300.286C328.76 299.745 328.581 299.311 328.224 298.984C327.877 298.657 327.377 298.494 326.723 298.494C326.09 298.494 325.58 298.657 325.192 298.984C324.804 299.311 324.574 299.75 324.503 300.301H323.14Z" fill="#192252"/>
<path d="M370.629 307.468C371.925 306.426 372.941 305.574 373.676 304.91C374.411 304.236 375.029 303.537 375.529 302.812C376.039 302.077 376.295 301.358 376.295 300.653C376.295 299.99 376.131 299.469 375.805 299.091C375.488 298.703 374.972 298.509 374.258 298.509C373.564 298.509 373.023 298.729 372.635 299.168C372.257 299.597 372.053 300.173 372.022 300.898H370.675C370.715 299.755 371.062 298.872 371.716 298.249C372.369 297.626 373.211 297.315 374.243 297.315C375.294 297.315 376.126 297.606 376.739 298.188C377.361 298.77 377.673 299.571 377.673 300.592C377.673 301.439 377.418 302.266 376.907 303.073C376.407 303.869 375.835 304.573 375.192 305.186C374.549 305.788 373.727 306.493 372.727 307.299H377.994V308.463H370.629V307.468ZM379.268 306.12V305.063L384.643 297.621H386.312V304.91H387.844V306.12H386.312V308.585H384.934V306.12H379.268ZM384.996 299.076L380.876 304.91H384.996V299.076Z" fill="#192252"/>
<path d="M30.1751 351.162C31.4717 350.121 32.4874 349.268 33.2225 348.605C33.9575 347.931 34.5752 347.231 35.0754 346.507C35.5859 345.772 35.8411 345.052 35.8411 344.347C35.8411 343.684 35.6777 343.163 35.351 342.786C35.0346 342.398 34.519 342.204 33.8044 342.204C33.1102 342.204 32.5691 342.423 32.1812 342.862C31.8035 343.291 31.5993 343.868 31.5686 344.592H30.2211C30.2619 343.449 30.609 342.566 31.2624 341.943C31.9157 341.321 32.758 341.009 33.7891 341.009C34.8406 341.009 35.6726 341.3 36.2852 341.882C36.9079 342.464 37.2193 343.265 37.2193 344.286C37.2193 345.134 36.9641 345.96 36.4536 346.767C35.9534 347.563 35.3817 348.268 34.7385 348.88C34.0954 349.483 33.2735 350.187 32.2731 350.993H37.5409V352.157H30.1751V351.162ZM46.2112 342.418H40.8362V345.909C41.071 345.583 41.4181 345.317 41.8775 345.113C42.3369 344.899 42.8321 344.792 43.3629 344.792C44.2103 344.792 44.8994 344.97 45.4302 345.328C45.9611 345.675 46.3388 346.129 46.5634 346.69C46.7982 347.242 46.9156 347.829 46.9156 348.451C46.9156 349.186 46.7778 349.845 46.5022 350.427C46.2265 351.009 45.8029 351.468 45.2312 351.805C44.6697 352.142 43.9704 352.31 43.1332 352.31C42.0613 352.31 41.1935 352.035 40.53 351.483C39.8664 350.932 39.4631 350.197 39.3202 349.278H40.6831C40.8158 349.86 41.0965 350.315 41.5253 350.641C41.9541 350.968 42.4952 351.131 43.1485 351.131C43.955 351.131 44.5625 350.891 44.9708 350.412C45.3792 349.922 45.5834 349.278 45.5834 348.482C45.5834 347.686 45.3792 347.073 44.9708 346.644C44.5625 346.205 43.9601 345.986 43.1639 345.986C42.6228 345.986 42.1481 346.119 41.7397 346.384C41.3416 346.639 41.0506 346.992 40.8668 347.441H39.5499V341.193H46.2112V342.418Z" fill="#192252"/>
<path d="M86.8669 351.162C88.1635 350.121 89.1792 349.268 89.9143 348.605C90.6493 347.931 91.267 347.231 91.7672 346.507C92.2777 345.772 92.5329 345.052 92.5329 344.347C92.5329 343.684 92.3695 343.163 92.0428 342.786C91.7264 342.398 91.2108 342.204 90.4962 342.204C89.802 342.204 89.2609 342.423 88.873 342.862C88.4953 343.291 88.2911 343.868 88.2604 344.592H86.9129C86.9537 343.449 87.3008 342.566 87.9542 341.943C88.6076 341.321 89.4498 341.009 90.4809 341.009C91.5324 341.009 92.3644 341.3 92.977 341.882C93.5997 342.464 93.9111 343.265 93.9111 344.286C93.9111 345.134 93.6559 345.96 93.1454 346.767C92.6452 347.563 92.0735 348.268 91.4303 348.88C90.7872 349.483 89.9653 350.187 88.9649 350.993H94.2327V352.157H86.8669V351.162ZM102.015 343.842C101.79 342.709 101.091 342.142 99.9169 342.142C99.0083 342.142 98.3294 342.495 97.8802 343.199C97.431 343.893 97.2115 345.042 97.2218 346.644C97.4566 346.114 97.8445 345.7 98.3856 345.404C98.9368 345.098 99.5494 344.945 100.223 344.945C101.275 344.945 102.112 345.271 102.735 345.925C103.368 346.578 103.684 347.482 103.684 348.635C103.684 349.329 103.546 349.952 103.271 350.503C103.005 351.055 102.597 351.494 102.045 351.82C101.504 352.147 100.846 352.31 100.07 352.31C99.0185 352.31 98.1967 352.076 97.6046 351.606C97.0125 351.136 96.599 350.488 96.3642 349.661C96.1294 348.834 96.012 347.813 96.012 346.599C96.012 342.852 97.3187 340.979 99.9322 340.979C100.933 340.979 101.719 341.249 102.29 341.79C102.862 342.331 103.199 343.015 103.301 343.842H102.015ZM99.9322 346.124C99.4932 346.124 99.0798 346.216 98.6918 346.399C98.3039 346.573 97.9874 346.844 97.7424 347.211C97.5076 347.568 97.3902 348.007 97.3902 348.528C97.3902 349.304 97.6148 349.937 98.064 350.427C98.5132 350.907 99.1563 351.147 99.9935 351.147C100.708 351.147 101.275 350.927 101.693 350.488C102.122 350.039 102.336 349.437 102.336 348.681C102.336 347.885 102.132 347.262 101.724 346.813C101.316 346.354 100.718 346.124 99.9322 346.124Z" fill="#192252"/>
<path d="M144.291 351.162C145.587 350.121 146.603 349.268 147.338 348.605C148.073 347.931 148.691 347.231 149.191 346.507C149.701 345.772 149.956 345.052 149.956 344.347C149.956 343.684 149.793 343.163 149.466 342.786C149.15 342.398 148.634 342.204 147.92 342.204C147.226 342.204 146.685 342.423 146.297 342.862C145.919 343.291 145.715 343.868 145.684 344.592H144.336C144.377 343.449 144.724 342.566 145.378 341.943C146.031 341.321 146.873 341.009 147.904 341.009C148.956 341.009 149.788 341.3 150.401 341.882C151.023 342.464 151.335 343.265 151.335 344.286C151.335 345.134 151.079 345.96 150.569 346.767C150.069 347.563 149.497 348.268 148.854 348.88C148.211 349.483 147.389 350.187 146.388 350.993H151.656V352.157H144.291V351.162ZM160.082 342.295L155.824 352.28H154.416L158.734 342.433H152.823V341.239H160.082V342.295Z" fill="#192252"/>
<path d="M200.384 351.162C201.681 350.121 202.696 349.268 203.432 348.605C204.167 347.931 204.784 347.231 205.284 346.507C205.795 345.772 206.05 345.052 206.05 344.347C206.05 343.684 205.887 343.163 205.56 342.786C205.244 342.398 204.728 342.204 204.013 342.204C203.319 342.204 202.778 342.423 202.39 342.862C202.012 343.291 201.808 343.868 201.778 344.592H200.43C200.471 343.449 200.818 342.566 201.471 341.943C202.125 341.321 202.967 341.009 203.998 341.009C205.05 341.009 205.882 341.3 206.494 341.882C207.117 342.464 207.428 343.265 207.428 344.286C207.428 345.134 207.173 345.96 206.663 346.767C206.162 347.563 205.591 348.268 204.948 348.88C204.304 349.483 203.483 350.187 202.482 350.993H207.75V352.157H200.384V351.162ZM211.382 346.522C210.81 346.297 210.371 345.971 210.065 345.542C209.759 345.113 209.606 344.592 209.606 343.98C209.606 343.429 209.744 342.934 210.019 342.495C210.295 342.045 210.703 341.693 211.244 341.438C211.796 341.172 212.459 341.04 213.235 341.04C214.011 341.04 214.669 341.172 215.21 341.438C215.762 341.693 216.175 342.045 216.451 342.495C216.737 342.934 216.88 343.429 216.88 343.98C216.88 344.572 216.721 345.093 216.405 345.542C216.088 345.981 215.655 346.308 215.103 346.522C215.736 346.716 216.236 347.058 216.604 347.548C216.982 348.028 217.171 348.61 217.171 349.294C217.171 349.957 217.007 350.539 216.681 351.039C216.354 351.529 215.889 351.912 215.287 352.188C214.695 352.453 214.011 352.586 213.235 352.586C212.459 352.586 211.775 352.453 211.183 352.188C210.601 351.912 210.147 351.529 209.82 351.039C209.493 350.539 209.33 349.957 209.33 349.294C209.33 348.61 209.514 348.023 209.881 347.533C210.249 347.043 210.749 346.706 211.382 346.522ZM215.532 344.148C215.532 343.526 215.328 343.046 214.92 342.709C214.511 342.372 213.95 342.204 213.235 342.204C212.531 342.204 211.974 342.372 211.566 342.709C211.158 343.046 210.953 343.531 210.953 344.164C210.953 344.735 211.163 345.195 211.581 345.542C212.01 345.889 212.561 346.063 213.235 346.063C213.919 346.063 214.47 345.889 214.889 345.542C215.318 345.185 215.532 344.72 215.532 344.148ZM213.235 347.134C212.48 347.134 211.862 347.313 211.382 347.67C210.902 348.018 210.662 348.543 210.662 349.248C210.662 349.901 210.892 350.427 211.351 350.825C211.821 351.223 212.449 351.422 213.235 351.422C214.021 351.422 214.644 351.223 215.103 350.825C215.563 350.427 215.792 349.901 215.792 349.248C215.792 348.564 215.558 348.043 215.088 347.686C214.618 347.318 214.001 347.134 213.235 347.134Z" fill="#192252"/>
<path d="M257.136 351.162C258.433 350.121 259.448 349.268 260.183 348.605C260.918 347.931 261.536 347.231 262.036 346.507C262.547 345.772 262.802 345.052 262.802 344.347C262.802 343.684 262.639 343.163 262.312 342.786C261.995 342.398 261.48 342.204 260.765 342.204C260.071 342.204 259.53 342.423 259.142 342.862C258.764 343.291 258.56 343.868 258.53 344.592H257.182C257.223 343.449 257.57 342.566 258.223 341.943C258.877 341.321 259.719 341.009 260.75 341.009C261.801 341.009 262.634 341.3 263.246 341.882C263.869 342.464 264.18 343.265 264.18 344.286C264.18 345.134 263.925 345.96 263.414 346.767C262.914 347.563 262.343 348.268 261.699 348.88C261.056 349.483 260.234 350.187 259.234 350.993H264.502V352.157H257.136V351.162ZM267.904 349.309C268.006 349.891 268.241 350.34 268.609 350.657C268.986 350.973 269.492 351.131 270.125 351.131C270.972 351.131 271.595 350.799 271.993 350.136C272.401 349.472 272.595 348.354 272.575 346.782C272.36 347.242 272.003 347.604 271.503 347.87C271.003 348.125 270.446 348.252 269.834 348.252C269.15 348.252 268.537 348.115 267.996 347.839C267.465 347.553 267.047 347.14 266.74 346.599C266.434 346.057 266.281 345.404 266.281 344.638C266.281 343.546 266.598 342.668 267.231 342.005C267.863 341.331 268.762 340.994 269.926 340.994C271.355 340.994 272.355 341.458 272.927 342.387C273.509 343.316 273.8 344.7 273.8 346.537C273.8 347.824 273.683 348.885 273.448 349.722C273.223 350.56 272.835 351.198 272.284 351.637C271.743 352.076 270.998 352.295 270.048 352.295C269.007 352.295 268.195 352.014 267.613 351.453C267.031 350.891 266.7 350.177 266.618 349.309H267.904ZM270.063 347.073C270.747 347.073 271.309 346.864 271.748 346.445C272.187 346.017 272.406 345.44 272.406 344.715C272.406 343.949 272.192 343.332 271.763 342.862C271.334 342.392 270.732 342.158 269.956 342.158C269.242 342.158 268.67 342.382 268.241 342.831C267.823 343.281 267.613 343.873 267.613 344.608C267.613 345.353 267.823 345.95 268.241 346.399C268.66 346.849 269.267 347.073 270.063 347.073Z" fill="#192252"/>
<path d="M313.928 343.995C313.999 343.056 314.362 342.321 315.015 341.79C315.669 341.259 316.516 340.994 317.557 340.994C318.251 340.994 318.849 341.121 319.349 341.377C319.859 341.622 320.242 341.959 320.497 342.387C320.763 342.816 320.896 343.301 320.896 343.842C320.896 344.475 320.712 345.021 320.344 345.481C319.987 345.94 319.517 346.236 318.935 346.369V346.445C319.599 346.609 320.125 346.93 320.513 347.41C320.901 347.89 321.095 348.518 321.095 349.294C321.095 349.876 320.962 350.401 320.697 350.871C320.431 351.33 320.033 351.693 319.502 351.958C318.971 352.224 318.333 352.356 317.588 352.356C316.506 352.356 315.618 352.076 314.923 351.514C314.229 350.942 313.841 350.136 313.76 349.095H315.107C315.179 349.707 315.429 350.207 315.857 350.595C316.286 350.983 316.858 351.177 317.573 351.177C318.287 351.177 318.828 350.993 319.196 350.626C319.574 350.248 319.762 349.763 319.762 349.171C319.762 348.406 319.507 347.854 318.997 347.517C318.486 347.18 317.716 347.012 316.684 347.012H316.332V345.848H316.7C317.639 345.838 318.348 345.685 318.828 345.389C319.308 345.083 319.548 344.613 319.548 343.98C319.548 343.439 319.369 343.005 319.012 342.678C318.665 342.352 318.165 342.188 317.511 342.188C316.878 342.188 316.368 342.352 315.98 342.678C315.592 343.005 315.362 343.444 315.291 343.995H313.928ZM322.976 346.629C322.976 344.873 323.262 343.505 323.834 342.525C324.405 341.535 325.406 341.04 326.835 341.04C328.254 341.04 329.25 341.535 329.821 342.525C330.393 343.505 330.679 344.873 330.679 346.629C330.679 348.416 330.393 349.804 329.821 350.794C329.25 351.785 328.254 352.28 326.835 352.28C325.406 352.28 324.405 351.785 323.834 350.794C323.262 349.804 322.976 348.416 322.976 346.629ZM329.301 346.629C329.301 345.741 329.239 344.991 329.117 344.378C329.005 343.755 328.765 343.255 328.397 342.877C328.04 342.5 327.519 342.311 326.835 342.311C326.141 342.311 325.61 342.5 325.243 342.877C324.885 343.255 324.645 343.755 324.523 344.378C324.411 344.991 324.354 345.741 324.354 346.629C324.354 347.548 324.411 348.319 324.523 348.941C324.645 349.564 324.885 350.064 325.243 350.442C325.61 350.82 326.141 351.009 326.835 351.009C327.519 351.009 328.04 350.82 328.397 350.442C328.765 350.064 329.005 349.564 329.117 348.941C329.239 348.319 329.301 347.548 329.301 346.629Z" fill="#192252"/>
<path d="M17.1186 30.1914C17.1186 28.8181 17.4252 27.5914 18.0386 26.5114C18.6652 25.4181 19.5119 24.5714 20.5786 23.9714C21.6586 23.3581 22.8652 23.0514 24.1986 23.0514C25.7586 23.0514 27.1252 23.4514 28.2986 24.2514C29.4719 25.0514 30.2919 26.1581 30.7586 27.5714H27.5386C27.2186 26.9047 26.7652 26.4047 26.1786 26.0714C25.6052 25.7381 24.9386 25.5714 24.1786 25.5714C23.3652 25.5714 22.6386 25.7647 21.9986 26.1514C21.3719 26.5247 20.8786 27.0581 20.5186 27.7514C20.1719 28.4447 19.9986 29.2581 19.9986 30.1914C19.9986 31.1114 20.1719 31.9247 20.5186 32.6314C20.8786 33.3247 21.3719 33.8647 21.9986 34.2514C22.6386 34.6247 23.3652 34.8114 24.1786 34.8114C24.9386 34.8114 25.6052 34.6447 26.1786 34.3114C26.7652 33.9647 27.2186 33.4581 27.5386 32.7914H30.7586C30.2919 34.2181 29.4719 35.3314 28.2986 36.1314C27.1386 36.9181 25.7719 37.3114 24.1986 37.3114C22.8652 37.3114 21.6586 37.0114 20.5786 36.4114C19.5119 35.7981 18.6652 34.9514 18.0386 33.8714C17.4252 32.7914 17.1186 31.5647 17.1186 30.1914ZM32.5301 31.6114C32.5301 30.4914 32.7501 29.4981 33.1901 28.6314C33.6435 27.7647 34.2501 27.0981 35.0101 26.6314C35.7835 26.1647 36.6435 25.9314 37.5901 25.9314C38.4168 25.9314 39.1368 26.0981 39.7501 26.4314C40.3768 26.7647 40.8768 27.1847 41.2501 27.6914V26.1114H44.0701V37.1914H41.2501V35.5714C40.8901 36.0914 40.3901 36.5247 39.7501 36.8714C39.1235 37.2047 38.3968 37.3714 37.5701 37.3714C36.6368 37.3714 35.7835 37.1314 35.0101 36.6514C34.2501 36.1714 33.6435 35.4981 33.1901 34.6314C32.7501 33.7514 32.5301 32.7447 32.5301 31.6114ZM41.2501 31.6514C41.2501 30.9714 41.1168 30.3914 40.8501 29.9114C40.5835 29.4181 40.2235 29.0447 39.7701 28.7914C39.3168 28.5247 38.8301 28.3914 38.3101 28.3914C37.7901 28.3914 37.3101 28.5181 36.8701 28.7714C36.4301 29.0247 36.0701 29.3981 35.7901 29.8914C35.5235 30.3714 35.3901 30.9447 35.3901 31.6114C35.3901 32.2781 35.5235 32.8647 35.7901 33.3714C36.0701 33.8647 36.4301 34.2447 36.8701 34.5114C37.3235 34.7781 37.8035 34.9114 38.3101 34.9114C38.8301 34.9114 39.3168 34.7847 39.7701 34.5314C40.2235 34.2647 40.5835 33.8914 40.8501 33.4114C41.1168 32.9181 41.2501 32.3314 41.2501 31.6514ZM49.7048 22.3914V37.1914H46.9048V22.3914H49.7048ZM62.8712 31.4114C62.8712 31.8114 62.8445 32.1714 62.7912 32.4914H54.6912C54.7579 33.2914 55.0379 33.9181 55.5312 34.3714C56.0245 34.8247 56.6312 35.0514 57.3512 35.0514C58.3912 35.0514 59.1312 34.6047 59.5712 33.7114H62.5912C62.2712 34.7781 61.6579 35.6581 60.7512 36.3514C59.8445 37.0314 58.7312 37.3714 57.4112 37.3714C56.3445 37.3714 55.3845 37.1381 54.5312 36.6714C53.6912 36.1914 53.0312 35.5181 52.5512 34.6514C52.0845 33.7847 51.8512 32.7847 51.8512 31.6514C51.8512 30.5047 52.0845 29.4981 52.5512 28.6314C53.0179 27.7647 53.6712 27.0981 54.5112 26.6314C55.3512 26.1647 56.3179 25.9314 57.4112 25.9314C58.4645 25.9314 59.4045 26.1581 60.2312 26.6114C61.0712 27.0647 61.7179 27.7114 62.1712 28.5514C62.6379 29.3781 62.8712 30.3314 62.8712 31.4114ZM59.9712 30.6114C59.9579 29.8914 59.6979 29.3181 59.1912 28.8914C58.6845 28.4514 58.0645 28.2314 57.3312 28.2314C56.6379 28.2314 56.0512 28.4447 55.5712 28.8714C55.1045 29.2847 54.8179 29.8647 54.7112 30.6114H59.9712ZM71.155 25.9514C72.475 25.9514 73.5416 26.3714 74.355 27.2114C75.1683 28.0381 75.575 29.1981 75.575 30.6914V37.1914H72.775V31.0714C72.775 30.1914 72.555 29.5181 72.115 29.0514C71.675 28.5714 71.075 28.3314 70.315 28.3314C69.5416 28.3314 68.9283 28.5714 68.475 29.0514C68.035 29.5181 67.815 30.1914 67.815 31.0714V37.1914H65.015V26.1114H67.815V27.4914C68.1883 27.0114 68.6616 26.6381 69.235 26.3714C69.8216 26.0914 70.4616 25.9514 71.155 25.9514ZM77.6176 31.6114C77.6176 30.4914 77.8376 29.4981 78.2776 28.6314C78.731 27.7647 79.3443 27.0981 80.1176 26.6314C80.891 26.1647 81.751 25.9314 82.6976 25.9314C83.4176 25.9314 84.1043 26.0914 84.7576 26.4114C85.411 26.7181 85.931 27.1314 86.3176 27.6514V22.3914H89.1576V37.1914H86.3176V35.5514C85.971 36.0981 85.4843 36.5381 84.8576 36.8714C84.231 37.2047 83.5043 37.3714 82.6776 37.3714C81.7443 37.3714 80.891 37.1314 80.1176 36.6514C79.3443 36.1714 78.731 35.4981 78.2776 34.6314C77.8376 33.7514 77.6176 32.7447 77.6176 31.6114ZM86.3376 31.6514C86.3376 30.9714 86.2043 30.3914 85.9376 29.9114C85.671 29.4181 85.311 29.0447 84.8576 28.7914C84.4043 28.5247 83.9176 28.3914 83.3976 28.3914C82.8776 28.3914 82.3976 28.5181 81.9576 28.7714C81.5176 29.0247 81.1576 29.3981 80.8776 29.8914C80.611 30.3714 80.4776 30.9447 80.4776 31.6114C80.4776 32.2781 80.611 32.8647 80.8776 33.3714C81.1576 33.8647 81.5176 34.2447 81.9576 34.5114C82.411 34.7781 82.891 34.9114 83.3976 34.9114C83.9176 34.9114 84.4043 34.7847 84.8576 34.5314C85.311 34.2647 85.671 33.8914 85.9376 33.4114C86.2043 32.9181 86.3376 32.3314 86.3376 31.6514ZM91.2723 31.6114C91.2723 30.4914 91.4923 29.4981 91.9323 28.6314C92.3856 27.7647 92.9923 27.0981 93.7523 26.6314C94.5256 26.1647 95.3856 25.9314 96.3323 25.9314C97.159 25.9314 97.879 26.0981 98.4923 26.4314C99.119 26.7647 99.619 27.1847 99.9923 27.6914V26.1114H102.812V37.1914H99.9923V35.5714C99.6323 36.0914 99.1323 36.5247 98.4923 36.8714C97.8656 37.2047 97.139 37.3714 96.3123 37.3714C95.379 37.3714 94.5256 37.1314 93.7523 36.6514C92.9923 36.1714 92.3856 35.4981 91.9323 34.6314C91.4923 33.7514 91.2723 32.7447 91.2723 31.6114ZM99.9923 31.6514C99.9923 30.9714 99.859 30.3914 99.5923 29.9114C99.3256 29.4181 98.9656 29.0447 98.5123 28.7914C98.059 28.5247 97.5723 28.3914 97.0523 28.3914C96.5323 28.3914 96.0523 28.5181 95.6123 28.7714C95.1723 29.0247 94.8123 29.3981 94.5323 29.8914C94.2656 30.3714 94.1323 30.9447 94.1323 31.6114C94.1323 32.2781 94.2656 32.8647 94.5323 33.3714C94.8123 33.8647 95.1723 34.2447 95.6123 34.5114C96.0656 34.7781 96.5456 34.9114 97.0523 34.9114C97.5723 34.9114 98.059 34.7847 98.5123 34.5314C98.9656 34.2647 99.3256 33.8914 99.5923 33.4114C99.859 32.9181 99.9923 32.3314 99.9923 31.6514ZM108.447 27.8314C108.807 27.2447 109.274 26.7847 109.847 26.4514C110.434 26.1181 111.1 25.9514 111.847 25.9514V28.8914H111.107C110.227 28.8914 109.56 29.0981 109.107 29.5114C108.667 29.9247 108.447 30.6447 108.447 31.6714V37.1914H105.647V26.1114H108.447V27.8314Z" fill="#192252"/>
<path d="M383.784 28.4522C384.14 28.0939 384.719 28.0929 385.076 28.4499L387.824 31.1978C388.26 31.6334 388.966 31.6334 389.402 31.1978L392.15 28.4499C392.507 28.0929 393.086 28.0939 393.442 28.4522C393.796 28.8087 393.795 29.3844 393.44 29.7397L389.402 33.7773C388.966 34.213 388.26 34.213 387.824 33.7773L383.787 29.7397C383.431 29.3844 383.43 28.8087 383.784 28.4522Z" fill="#192252"/>
<path d="M20.5257 394.018V402.658C20.5257 403.604 20.7724 404.331 21.2657 404.838C21.7591 405.331 22.4524 405.578 23.3457 405.578C24.2524 405.578 24.9524 405.331 25.4457 404.838C25.9391 404.331 26.1857 403.604 26.1857 402.658V394.018H29.0057V402.638C29.0057 403.824 28.7457 404.831 28.2257 405.658C27.7191 406.471 27.0324 407.084 26.1657 407.498C25.3124 407.911 24.3591 408.118 23.3057 408.118C22.2657 408.118 21.3191 407.911 20.4657 407.498C19.6257 407.084 18.9591 406.471 18.4657 405.658C17.9724 404.831 17.7257 403.824 17.7257 402.638V394.018H20.5257ZM34.6111 398.498C34.9711 397.991 35.4644 397.571 36.0911 397.238C36.7311 396.891 37.4577 396.718 38.2711 396.718C39.2177 396.718 40.0711 396.951 40.8311 397.418C41.6044 397.884 42.2111 398.551 42.6511 399.418C43.1044 400.271 43.3311 401.264 43.3311 402.398C43.3311 403.531 43.1044 404.538 42.6511 405.418C42.2111 406.284 41.6044 406.958 40.8311 407.438C40.0711 407.918 39.2177 408.158 38.2711 408.158C37.4577 408.158 36.7377 407.991 36.1111 407.658C35.4977 407.324 34.9977 406.904 34.6111 406.398V413.258H31.8111V396.898H34.6111V398.498ZM40.4711 402.398C40.4711 401.731 40.3311 401.158 40.0511 400.678C39.7844 400.184 39.4244 399.811 38.9711 399.558C38.5311 399.304 38.0511 399.178 37.5311 399.178C37.0244 399.178 36.5444 399.311 36.0911 399.578C35.6511 399.831 35.2911 400.204 35.0111 400.698C34.7444 401.191 34.6111 401.771 34.6111 402.438C34.6111 403.104 34.7444 403.684 35.0111 404.178C35.2911 404.671 35.6511 405.051 36.0911 405.318C36.5444 405.571 37.0244 405.698 37.5311 405.698C38.0511 405.698 38.5311 405.564 38.9711 405.298C39.4244 405.031 39.7844 404.651 40.0511 404.158C40.3311 403.664 40.4711 403.078 40.4711 402.398ZM44.7457 402.438C44.7457 401.291 44.9791 400.291 45.4457 399.438C45.9124 398.571 46.5591 397.904 47.3857 397.438C48.2124 396.958 49.1591 396.718 50.2257 396.718C51.5991 396.718 52.7324 397.064 53.6257 397.758C54.5324 398.438 55.1391 399.398 55.4457 400.638H52.4257C52.2657 400.158 51.9924 399.784 51.6057 399.518C51.2324 399.238 50.7657 399.098 50.2057 399.098C49.4057 399.098 48.7724 399.391 48.3057 399.978C47.8391 400.551 47.6057 401.371 47.6057 402.438C47.6057 403.491 47.8391 404.311 48.3057 404.898C48.7724 405.471 49.4057 405.758 50.2057 405.758C51.3391 405.758 52.0791 405.251 52.4257 404.238H55.4457C55.1391 405.438 54.5324 406.391 53.6257 407.098C52.7191 407.804 51.5857 408.158 50.2257 408.158C49.1591 408.158 48.2124 407.924 47.3857 407.458C46.5591 406.978 45.9124 406.311 45.4457 405.458C44.9791 404.591 44.7457 403.584 44.7457 402.438ZM62.517 408.158C61.4503 408.158 60.4903 407.924 59.637 407.458C58.7837 406.978 58.1103 406.304 57.617 405.438C57.137 404.571 56.897 403.571 56.897 402.438C56.897 401.304 57.1437 400.304 57.637 399.438C58.1437 398.571 58.8303 397.904 59.697 397.438C60.5637 396.958 61.5303 396.718 62.597 396.718C63.6637 396.718 64.6303 396.958 65.497 397.438C66.3637 397.904 67.0437 398.571 67.537 399.438C68.0437 400.304 68.297 401.304 68.297 402.438C68.297 403.571 68.037 404.571 67.517 405.438C67.0103 406.304 66.317 406.978 65.437 407.458C64.5703 407.924 63.597 408.158 62.517 408.158ZM62.517 405.718C63.0237 405.718 63.497 405.598 63.937 405.358C64.3903 405.104 64.7503 404.731 65.017 404.238C65.2837 403.744 65.417 403.144 65.417 402.438C65.417 401.384 65.137 400.578 64.577 400.018C64.0303 399.444 63.357 399.158 62.557 399.158C61.757 399.158 61.0837 399.444 60.537 400.018C60.0037 400.578 59.737 401.384 59.737 402.438C59.737 403.491 59.997 404.304 60.517 404.878C61.0503 405.438 61.717 405.718 62.517 405.718ZM84.2109 396.738C85.5709 396.738 86.6642 397.158 87.4909 397.998C88.3309 398.824 88.7509 399.984 88.7509 401.478V407.978H85.9509V401.858C85.9509 400.991 85.7309 400.331 85.2909 399.878C84.8509 399.411 84.2509 399.178 83.4909 399.178C82.7309 399.178 82.1242 399.411 81.6709 399.878C81.2309 400.331 81.0109 400.991 81.0109 401.858V407.978H78.2109V401.858C78.2109 400.991 77.9909 400.331 77.5509 399.878C77.1109 399.411 76.5109 399.178 75.7509 399.178C74.9776 399.178 74.3642 399.411 73.9109 399.878C73.4709 400.331 73.2509 400.991 73.2509 401.858V407.978H70.4509V396.898H73.2509V398.238C73.6109 397.771 74.0709 397.404 74.6309 397.138C75.2042 396.871 75.8309 396.738 76.5109 396.738C77.3776 396.738 78.1509 396.924 78.8309 397.298C79.5109 397.658 80.0376 398.178 80.4109 398.858C80.7709 398.218 81.2909 397.704 81.9709 397.318C82.6642 396.931 83.4109 396.738 84.2109 396.738ZM92.9279 395.578C92.4346 395.578 92.0213 395.424 91.6879 395.118C91.3679 394.798 91.2079 394.404 91.2079 393.938C91.2079 393.471 91.3679 393.084 91.6879 392.778C92.0213 392.458 92.4346 392.298 92.9279 392.298C93.4213 392.298 93.8279 392.458 94.1479 392.778C94.4813 393.084 94.6479 393.471 94.6479 393.938C94.6479 394.404 94.4813 394.798 94.1479 395.118C93.8279 395.424 93.4213 395.578 92.9279 395.578ZM94.3079 396.898V407.978H91.5079V396.898H94.3079ZM103.314 396.738C104.634 396.738 105.701 397.158 106.514 397.998C107.328 398.824 107.734 399.984 107.734 401.478V407.978H104.934V401.858C104.934 400.978 104.714 400.304 104.274 399.838C103.834 399.358 103.234 399.118 102.474 399.118C101.701 399.118 101.088 399.358 100.634 399.838C100.194 400.304 99.9743 400.978 99.9743 401.858V407.978H97.1743V396.898H99.9743V398.278C100.348 397.798 100.821 397.424 101.394 397.158C101.981 396.878 102.621 396.738 103.314 396.738ZM114.837 396.718C115.664 396.718 116.39 396.884 117.017 397.218C117.644 397.538 118.137 397.958 118.497 398.478V396.898H121.317V408.058C121.317 409.084 121.11 409.998 120.697 410.798C120.284 411.611 119.664 412.251 118.837 412.718C118.01 413.198 117.01 413.438 115.837 413.438C114.264 413.438 112.97 413.071 111.957 412.338C110.957 411.604 110.39 410.604 110.257 409.338H113.037C113.184 409.844 113.497 410.244 113.977 410.538C114.47 410.844 115.064 410.998 115.757 410.998C116.57 410.998 117.23 410.751 117.737 410.258C118.244 409.778 118.497 409.044 118.497 408.058V406.338C118.137 406.858 117.637 407.291 116.997 407.638C116.37 407.984 115.65 408.158 114.837 408.158C113.904 408.158 113.05 407.918 112.277 407.438C111.504 406.958 110.89 406.284 110.437 405.418C109.997 404.538 109.777 403.531 109.777 402.398C109.777 401.278 109.997 400.284 110.437 399.418C110.89 398.551 111.497 397.884 112.257 397.418C113.03 396.951 113.89 396.718 114.837 396.718ZM118.497 402.438C118.497 401.758 118.364 401.178 118.097 400.698C117.83 400.204 117.47 399.831 117.017 399.578C116.564 399.311 116.077 399.178 115.557 399.178C115.037 399.178 114.557 399.304 114.117 399.558C113.677 399.811 113.317 400.184 113.037 400.678C112.77 401.158 112.637 401.731 112.637 402.398C112.637 403.064 112.77 403.651 113.037 404.158C113.317 404.651 113.677 405.031 114.117 405.298C114.57 405.564 115.05 405.698 115.557 405.698C116.077 405.698 116.564 405.571 117.017 405.318C117.47 405.051 117.83 404.678 118.097 404.198C118.364 403.704 118.497 403.118 118.497 402.438Z" fill="#192252"/>
<path d="M359.2 396.614L356.044 404.978H354.784L351.628 396.614H352.792L355.42 403.826L358.048 396.614H359.2ZM360.961 397.334C360.753 397.334 360.577 397.262 360.433 397.118C360.289 396.974 360.217 396.798 360.217 396.59C360.217 396.382 360.289 396.206 360.433 396.062C360.577 395.918 360.753 395.846 360.961 395.846C361.161 395.846 361.329 395.918 361.465 396.062C361.609 396.206 361.681 396.382 361.681 396.59C361.681 396.798 361.609 396.974 361.465 397.118C361.329 397.262 361.161 397.334 360.961 397.334ZM361.489 398.402V404.978H360.397V398.402H361.489ZM369.35 401.438C369.35 401.646 369.338 401.866 369.314 402.098H364.058C364.098 402.746 364.318 403.254 364.718 403.622C365.126 403.982 365.618 404.162 366.194 404.162C366.666 404.162 367.058 404.054 367.37 403.838C367.69 403.614 367.914 403.318 368.042 402.95H369.218C369.042 403.582 368.69 404.098 368.162 404.498C367.634 404.89 366.978 405.086 366.194 405.086C365.57 405.086 365.01 404.946 364.514 404.666C364.026 404.386 363.642 403.99 363.362 403.478C363.082 402.958 362.942 402.358 362.942 401.678C362.942 400.998 363.078 400.402 363.35 399.89C363.622 399.378 364.002 398.986 364.49 398.714C364.986 398.434 365.554 398.294 366.194 398.294C366.818 398.294 367.37 398.43 367.85 398.702C368.33 398.974 368.698 399.35 368.954 399.83C369.218 400.302 369.35 400.838 369.35 401.438ZM368.222 401.21C368.222 400.794 368.13 400.438 367.946 400.142C367.762 399.838 367.51 399.61 367.19 399.458C366.878 399.298 366.53 399.218 366.146 399.218C365.594 399.218 365.122 399.394 364.73 399.746C364.346 400.098 364.126 400.586 364.07 401.21H368.222ZM379.551 398.402L377.499 404.978H376.371L374.787 399.758L373.203 404.978H372.075L370.011 398.402H371.127L372.639 403.922L374.271 398.402H375.387L376.983 403.934L378.471 398.402H379.551ZM388.778 403.118H385.13L384.458 404.978H383.306L386.33 396.662H387.59L390.602 404.978H389.45L388.778 403.118ZM388.466 402.23L386.954 398.006L385.442 402.23H388.466ZM393.012 396.098V404.978H391.92V396.098H393.012ZM395.965 396.098V404.978H394.873V396.098H395.965Z" fill="#1A71FF"/>
<path d="M351.364 406.178H396.901V406.778H351.364V406.178Z" fill="#1A71FF"/>
<rect x="16.3857" y="438.329" width="380.978" height="63.4963" rx="10.2413" fill="#F0F9FD"/>
<path d="M110.204 453.402V464.522H108.38V456.906L104.988 464.522H103.724L100.316 456.906V464.522H98.4925V453.402H100.46L104.364 462.122L108.252 453.402H110.204ZM116.506 464.666C115.674 464.666 114.922 464.48 114.25 464.106C113.578 463.722 113.05 463.189 112.666 462.506C112.282 461.813 112.09 461.013 112.09 460.106C112.09 459.21 112.287 458.416 112.682 457.722C113.077 457.029 113.615 456.496 114.298 456.122C114.981 455.749 115.743 455.562 116.586 455.562C117.429 455.562 118.191 455.749 118.874 456.122C119.557 456.496 120.095 457.029 120.49 457.722C120.885 458.416 121.082 459.21 121.082 460.106C121.082 461.002 120.879 461.797 120.474 462.49C120.069 463.184 119.514 463.722 118.81 464.106C118.117 464.48 117.349 464.666 116.506 464.666ZM116.506 463.082C116.975 463.082 117.413 462.97 117.818 462.746C118.234 462.522 118.57 462.186 118.826 461.738C119.082 461.29 119.21 460.746 119.21 460.106C119.21 459.466 119.087 458.928 118.842 458.49C118.597 458.042 118.271 457.706 117.866 457.482C117.461 457.258 117.023 457.146 116.554 457.146C116.085 457.146 115.647 457.258 115.242 457.482C114.847 457.706 114.533 458.042 114.298 458.49C114.063 458.928 113.946 459.466 113.946 460.106C113.946 461.056 114.186 461.792 114.666 462.314C115.157 462.826 115.77 463.082 116.506 463.082ZM127.413 455.562C128.106 455.562 128.725 455.706 129.269 455.994C129.824 456.282 130.256 456.709 130.565 457.274C130.874 457.84 131.029 458.522 131.029 459.322V464.522H129.221V459.594C129.221 458.805 129.024 458.202 128.629 457.786C128.234 457.36 127.696 457.146 127.013 457.146C126.33 457.146 125.786 457.36 125.381 457.786C124.986 458.202 124.789 458.805 124.789 459.594V464.522H122.965V455.706H124.789V456.714C125.088 456.352 125.466 456.069 125.925 455.866C126.394 455.664 126.89 455.562 127.413 455.562ZM135.564 457.194V462.074C135.564 462.405 135.638 462.645 135.788 462.794C135.948 462.933 136.214 463.002 136.588 463.002H137.708V464.522H136.268C135.446 464.522 134.817 464.33 134.38 463.946C133.942 463.562 133.724 462.938 133.724 462.074V457.194H132.684V455.706H133.724V453.514H135.564V455.706H137.708V457.194H135.564ZM141.293 452.682V464.522H139.469V452.682H141.293ZM151.703 455.706L146.295 468.666H144.407L146.199 464.378L142.727 455.706H144.759L147.239 462.426L149.815 455.706H151.703ZM156.788 460.074C156.788 459.189 156.97 458.405 157.332 457.722C157.706 457.04 158.207 456.512 158.836 456.138C159.476 455.754 160.186 455.562 160.964 455.562C161.54 455.562 162.106 455.69 162.66 455.946C163.226 456.192 163.674 456.522 164.004 456.938V452.682H165.844V464.522H164.004V463.194C163.706 463.621 163.29 463.973 162.756 464.25C162.234 464.528 161.631 464.666 160.948 464.666C160.18 464.666 159.476 464.474 158.836 464.09C158.207 463.696 157.706 463.152 157.332 462.458C156.97 461.754 156.788 460.96 156.788 460.074ZM164.004 460.106C164.004 459.498 163.876 458.97 163.62 458.522C163.375 458.074 163.05 457.733 162.644 457.498C162.239 457.264 161.802 457.146 161.332 457.146C160.863 457.146 160.426 457.264 160.02 457.498C159.615 457.722 159.284 458.058 159.028 458.506C158.783 458.944 158.66 459.466 158.66 460.074C158.66 460.682 158.783 461.216 159.028 461.674C159.284 462.133 159.615 462.485 160.02 462.73C160.436 462.965 160.874 463.082 161.332 463.082C161.802 463.082 162.239 462.965 162.644 462.73C163.05 462.496 163.375 462.154 163.62 461.706C163.876 461.248 164.004 460.714 164.004 460.106ZM172.144 464.666C171.312 464.666 170.56 464.48 169.888 464.106C169.216 463.722 168.688 463.189 168.304 462.506C167.92 461.813 167.728 461.013 167.728 460.106C167.728 459.21 167.925 458.416 168.32 457.722C168.715 457.029 169.253 456.496 169.936 456.122C170.619 455.749 171.381 455.562 172.224 455.562C173.067 455.562 173.829 455.749 174.512 456.122C175.195 456.496 175.733 457.029 176.128 457.722C176.523 458.416 176.72 459.21 176.72 460.106C176.72 461.002 176.517 461.797 176.112 462.49C175.707 463.184 175.152 463.722 174.448 464.106C173.755 464.48 172.987 464.666 172.144 464.666ZM172.144 463.082C172.613 463.082 173.051 462.97 173.456 462.746C173.872 462.522 174.208 462.186 174.464 461.738C174.72 461.29 174.848 460.746 174.848 460.106C174.848 459.466 174.725 458.928 174.48 458.49C174.235 458.042 173.909 457.706 173.504 457.482C173.099 457.258 172.661 457.146 172.192 457.146C171.723 457.146 171.285 457.258 170.88 457.482C170.485 457.706 170.171 458.042 169.936 458.49C169.701 458.928 169.584 459.466 169.584 460.106C169.584 461.056 169.824 461.792 170.304 462.314C170.795 462.826 171.408 463.082 172.144 463.082ZM177.995 460.106C177.995 459.2 178.176 458.405 178.539 457.722C178.912 457.029 179.424 456.496 180.075 456.122C180.726 455.749 181.472 455.562 182.315 455.562C183.382 455.562 184.262 455.818 184.955 456.33C185.659 456.832 186.134 457.552 186.379 458.49H184.411C184.251 458.053 183.995 457.712 183.643 457.466C183.291 457.221 182.848 457.098 182.315 457.098C181.568 457.098 180.971 457.365 180.523 457.898C180.086 458.421 179.867 459.157 179.867 460.106C179.867 461.056 180.086 461.797 180.523 462.33C180.971 462.864 181.568 463.13 182.315 463.13C183.371 463.13 184.07 462.666 184.411 461.738H186.379C186.123 462.634 185.643 463.349 184.939 463.882C184.235 464.405 183.36 464.666 182.315 464.666C181.472 464.666 180.726 464.48 180.075 464.106C179.424 463.722 178.912 463.189 178.539 462.506C178.176 461.813 177.995 461.013 177.995 460.106ZM190.405 457.194V462.074C190.405 462.405 190.48 462.645 190.629 462.794C190.789 462.933 191.056 463.002 191.429 463.002H192.549V464.522H191.109C190.288 464.522 189.658 464.33 189.221 463.946C188.784 463.562 188.565 462.938 188.565 462.074V457.194H187.525V455.706H188.565V453.514H190.405V455.706H192.549V457.194H190.405ZM198.134 464.666C197.302 464.666 196.55 464.48 195.878 464.106C195.206 463.722 194.678 463.189 194.294 462.506C193.91 461.813 193.718 461.013 193.718 460.106C193.718 459.21 193.915 458.416 194.31 457.722C194.705 457.029 195.243 456.496 195.926 456.122C196.609 455.749 197.371 455.562 198.214 455.562C199.057 455.562 199.819 455.749 200.502 456.122C201.185 456.496 201.723 457.029 202.118 457.722C202.513 458.416 202.71 459.21 202.71 460.106C202.71 461.002 202.507 461.797 202.102 462.49C201.697 463.184 201.142 463.722 200.438 464.106C199.745 464.48 198.977 464.666 198.134 464.666ZM198.134 463.082C198.603 463.082 199.041 462.97 199.446 462.746C199.862 462.522 200.198 462.186 200.454 461.738C200.71 461.29 200.838 460.746 200.838 460.106C200.838 459.466 200.715 458.928 200.47 458.49C200.225 458.042 199.899 457.706 199.494 457.482C199.089 457.258 198.651 457.146 198.182 457.146C197.713 457.146 197.275 457.258 196.87 457.482C196.475 457.706 196.161 458.042 195.926 458.49C195.691 458.928 195.574 459.466 195.574 460.106C195.574 461.056 195.814 461.792 196.294 462.314C196.785 462.826 197.398 463.082 198.134 463.082ZM206.417 456.986C206.684 456.538 207.036 456.192 207.473 455.946C207.921 455.69 208.449 455.562 209.057 455.562V457.45H208.593C207.878 457.45 207.334 457.632 206.961 457.994C206.598 458.357 206.417 458.986 206.417 459.882V464.522H204.593V455.706H206.417V456.986ZM211.102 453.402H213.086L211.406 457.21H210.126L211.102 453.402ZM217.969 464.666C217.275 464.666 216.651 464.544 216.097 464.298C215.553 464.042 215.121 463.701 214.801 463.274C214.481 462.837 214.31 462.352 214.289 461.818H216.177C216.209 462.192 216.385 462.506 216.705 462.762C217.035 463.008 217.446 463.13 217.937 463.13C218.449 463.13 218.843 463.034 219.121 462.842C219.409 462.64 219.553 462.384 219.553 462.074C219.553 461.744 219.393 461.498 219.073 461.338C218.763 461.178 218.267 461.002 217.585 460.81C216.923 460.629 216.385 460.453 215.969 460.282C215.553 460.112 215.19 459.85 214.881 459.498C214.582 459.146 214.433 458.682 214.433 458.106C214.433 457.637 214.571 457.21 214.849 456.826C215.126 456.432 215.521 456.122 216.033 455.898C216.555 455.674 217.153 455.562 217.825 455.562C218.827 455.562 219.633 455.818 220.241 456.33C220.859 456.832 221.19 457.52 221.233 458.394H219.409C219.377 458 219.217 457.685 218.929 457.45C218.641 457.216 218.251 457.098 217.761 457.098C217.281 457.098 216.913 457.189 216.657 457.37C216.401 457.552 216.273 457.792 216.273 458.09C216.273 458.325 216.358 458.522 216.529 458.682C216.699 458.842 216.907 458.97 217.153 459.066C217.398 459.152 217.761 459.264 218.241 459.402C218.881 459.573 219.403 459.749 219.809 459.93C220.225 460.101 220.582 460.357 220.881 460.698C221.179 461.04 221.334 461.493 221.345 462.058C221.345 462.56 221.206 463.008 220.929 463.402C220.651 463.797 220.257 464.106 219.745 464.33C219.243 464.554 218.651 464.666 217.969 464.666ZM238.304 455.562C238.997 455.562 239.616 455.706 240.16 455.994C240.715 456.282 241.147 456.709 241.456 457.274C241.776 457.84 241.936 458.522 241.936 459.322V464.522H240.128V459.594C240.128 458.805 239.931 458.202 239.536 457.786C239.141 457.36 238.603 457.146 237.92 457.146C237.237 457.146 236.693 457.36 236.288 457.786C235.893 458.202 235.696 458.805 235.696 459.594V464.522H233.888V459.594C233.888 458.805 233.691 458.202 233.296 457.786C232.901 457.36 232.363 457.146 231.68 457.146C230.997 457.146 230.453 457.36 230.048 457.786C229.653 458.202 229.456 458.805 229.456 459.594V464.522H227.632V455.706H229.456V456.714C229.755 456.352 230.133 456.069 230.592 455.866C231.051 455.664 231.541 455.562 232.064 455.562C232.768 455.562 233.397 455.712 233.952 456.01C234.507 456.309 234.933 456.741 235.232 457.306C235.499 456.773 235.915 456.352 236.48 456.042C237.045 455.722 237.653 455.562 238.304 455.562ZM252.417 459.898C252.417 460.229 252.396 460.528 252.353 460.794H245.617C245.67 461.498 245.932 462.064 246.401 462.49C246.87 462.917 247.446 463.13 248.129 463.13C249.11 463.13 249.804 462.72 250.209 461.898H252.177C251.91 462.709 251.425 463.376 250.721 463.898C250.028 464.41 249.164 464.666 248.129 464.666C247.286 464.666 246.529 464.48 245.857 464.106C245.196 463.722 244.673 463.189 244.289 462.506C243.916 461.813 243.729 461.013 243.729 460.106C243.729 459.2 243.91 458.405 244.273 457.722C244.646 457.029 245.164 456.496 245.825 456.122C246.497 455.749 247.265 455.562 248.129 455.562C248.961 455.562 249.702 455.744 250.353 456.106C251.004 456.469 251.51 456.981 251.873 457.642C252.236 458.293 252.417 459.045 252.417 459.898ZM250.513 459.322C250.502 458.65 250.262 458.112 249.793 457.706C249.324 457.301 248.742 457.098 248.049 457.098C247.42 457.098 246.881 457.301 246.433 457.706C245.985 458.101 245.718 458.64 245.633 459.322H250.513ZM262.372 459.898C262.372 460.229 262.351 460.528 262.308 460.794H255.572C255.625 461.498 255.887 462.064 256.356 462.49C256.825 462.917 257.401 463.13 258.084 463.13C259.065 463.13 259.759 462.72 260.164 461.898H262.132C261.865 462.709 261.38 463.376 260.676 463.898C259.983 464.41 259.119 464.666 258.084 464.666C257.241 464.666 256.484 464.48 255.812 464.106C255.151 463.722 254.628 463.189 254.244 462.506C253.871 461.813 253.684 461.013 253.684 460.106C253.684 459.2 253.865 458.405 254.228 457.722C254.601 457.029 255.119 456.496 255.78 456.122C256.452 455.749 257.22 455.562 258.084 455.562C258.916 455.562 259.657 455.744 260.308 456.106C260.959 456.469 261.465 456.981 261.828 457.642C262.191 458.293 262.372 459.045 262.372 459.898ZM260.468 459.322C260.457 458.65 260.217 458.112 259.748 457.706C259.279 457.301 258.697 457.098 258.004 457.098C257.375 457.098 256.836 457.301 256.388 457.706C255.94 458.101 255.673 458.64 255.588 459.322H260.468ZM266.375 457.194V462.074C266.375 462.405 266.45 462.645 266.599 462.794C266.759 462.933 267.026 463.002 267.399 463.002H268.519V464.522H267.079C266.258 464.522 265.628 464.33 265.191 463.946C264.754 463.562 264.535 462.938 264.535 462.074V457.194H263.495V455.706H264.535V453.514H266.375V455.706H268.519V457.194H266.375Z" fill="#192252"/>
<path d="M99.538 483.577C99.0792 483.397 98.7269 483.135 98.4811 482.791C98.2353 482.447 98.1124 482.029 98.1124 481.537C98.1124 481.095 98.223 480.697 98.4442 480.345C98.6654 479.985 98.9932 479.702 99.4274 479.497C99.8698 479.284 100.402 479.178 101.025 479.178C101.648 479.178 102.176 479.284 102.61 479.497C103.053 479.702 103.385 479.985 103.606 480.345C103.835 480.697 103.95 481.095 103.95 481.537C103.95 482.012 103.823 482.43 103.569 482.791C103.315 483.143 102.967 483.405 102.524 483.577C103.032 483.733 103.434 484.007 103.729 484.401C104.032 484.786 104.183 485.253 104.183 485.802C104.183 486.334 104.052 486.801 103.79 487.203C103.528 487.596 103.155 487.903 102.672 488.125C102.197 488.338 101.648 488.444 101.025 488.444C100.402 488.444 99.8534 488.338 99.3782 488.125C98.9112 487.903 98.5466 487.596 98.2845 487.203C98.0223 486.801 97.8912 486.334 97.8912 485.802C97.8912 485.253 98.0387 484.782 98.3336 484.388C98.6286 483.995 99.03 483.725 99.538 483.577ZM102.868 481.672C102.868 481.173 102.705 480.788 102.377 480.517C102.049 480.247 101.599 480.112 101.025 480.112C100.46 480.112 100.013 480.247 99.6855 480.517C99.3577 480.788 99.1939 481.177 99.1939 481.685C99.1939 482.144 99.3618 482.512 99.6978 482.791C100.042 483.069 100.484 483.209 101.025 483.209C101.574 483.209 102.016 483.069 102.352 482.791C102.696 482.504 102.868 482.131 102.868 481.672ZM101.025 484.069C100.419 484.069 99.9231 484.212 99.538 484.499C99.1529 484.778 98.9604 485.2 98.9604 485.765C98.9604 486.289 99.1447 486.711 99.5134 487.031C99.8903 487.35 100.394 487.51 101.025 487.51C101.656 487.51 102.156 487.35 102.524 487.031C102.893 486.711 103.077 486.289 103.077 485.765C103.077 485.216 102.889 484.798 102.512 484.511C102.135 484.216 101.64 484.069 101.025 484.069ZM114.316 486.293H110.58L109.892 488.198H108.712L111.809 479.682H113.099L116.184 488.198H115.004L114.316 486.293ZM113.996 485.384L112.448 481.058L110.899 485.384H113.996ZM118.713 482.705C118.935 482.32 119.262 482 119.696 481.746C120.139 481.484 120.651 481.353 121.233 481.353C121.831 481.353 122.372 481.496 122.855 481.783C123.347 482.07 123.732 482.475 124.01 483C124.289 483.516 124.428 484.118 124.428 484.806C124.428 485.486 124.289 486.093 124.01 486.625C123.732 487.158 123.347 487.571 122.855 487.866C122.372 488.161 121.831 488.309 121.233 488.309C120.659 488.309 120.151 488.182 119.709 487.928C119.275 487.666 118.943 487.342 118.713 486.957V491.394H117.595V481.464H118.713V482.705ZM123.285 484.806C123.285 484.298 123.183 483.856 122.978 483.479C122.773 483.102 122.494 482.815 122.142 482.619C121.798 482.422 121.417 482.324 120.999 482.324C120.59 482.324 120.209 482.426 119.856 482.631C119.512 482.828 119.234 483.119 119.021 483.504C118.816 483.88 118.713 484.319 118.713 484.819C118.713 485.327 118.816 485.773 119.021 486.158C119.234 486.535 119.512 486.826 119.856 487.031C120.209 487.227 120.59 487.326 120.999 487.326C121.417 487.326 121.798 487.227 122.142 487.031C122.494 486.826 122.773 486.535 122.978 486.158C123.183 485.773 123.285 485.322 123.285 484.806ZM127.08 482.557C127.276 482.172 127.555 481.873 127.916 481.66C128.284 481.447 128.731 481.341 129.255 481.341V482.496H128.96C127.707 482.496 127.08 483.176 127.08 484.536V488.198H125.962V481.464H127.08V482.557ZM131.185 480.37C130.972 480.37 130.792 480.296 130.644 480.149C130.497 480.001 130.423 479.821 130.423 479.608C130.423 479.395 130.497 479.215 130.644 479.067C130.792 478.92 130.972 478.846 131.185 478.846C131.39 478.846 131.562 478.92 131.701 479.067C131.849 479.215 131.923 479.395 131.923 479.608C131.923 479.821 131.849 480.001 131.701 480.149C131.562 480.296 131.39 480.37 131.185 480.37ZM131.726 481.464V488.198H130.608V481.464H131.726ZM134.812 479.104V488.198H133.693V479.104H134.812ZM137.934 486.65L136.558 489.956H135.808L136.706 486.65H137.934ZM142.295 487.301C143.336 486.465 144.151 485.781 144.741 485.249C145.331 484.708 145.827 484.147 146.228 483.565C146.638 482.975 146.843 482.398 146.843 481.832C146.843 481.3 146.711 480.882 146.449 480.579C146.195 480.267 145.782 480.112 145.208 480.112C144.651 480.112 144.217 480.288 143.905 480.64C143.602 480.984 143.438 481.447 143.414 482.029H142.332C142.365 481.111 142.644 480.403 143.168 479.903C143.692 479.403 144.368 479.153 145.196 479.153C146.04 479.153 146.707 479.387 147.199 479.854C147.699 480.321 147.949 480.964 147.949 481.783C147.949 482.463 147.744 483.127 147.334 483.774C146.933 484.413 146.474 484.978 145.958 485.47C145.441 485.953 144.782 486.519 143.979 487.166H148.207V488.1H142.295V487.301ZM149.561 483.663C149.561 482.254 149.79 481.156 150.249 480.37C150.708 479.575 151.511 479.178 152.658 479.178C153.797 479.178 154.596 479.575 155.054 480.37C155.513 481.156 155.743 482.254 155.743 483.663C155.743 485.097 155.513 486.211 155.054 487.006C154.596 487.801 153.797 488.198 152.658 488.198C151.511 488.198 150.708 487.801 150.249 487.006C149.79 486.211 149.561 485.097 149.561 483.663ZM154.637 483.663C154.637 482.951 154.587 482.348 154.489 481.857C154.399 481.357 154.206 480.956 153.911 480.652C153.625 480.349 153.207 480.198 152.658 480.198C152.101 480.198 151.675 480.349 151.38 480.652C151.093 480.956 150.9 481.357 150.802 481.857C150.712 482.348 150.667 482.951 150.667 483.663C150.667 484.401 150.712 485.019 150.802 485.519C150.9 486.019 151.093 486.42 151.38 486.723C151.675 487.027 152.101 487.178 152.658 487.178C153.207 487.178 153.625 487.027 153.911 486.723C154.206 486.42 154.399 486.019 154.489 485.519C154.587 485.019 154.637 484.401 154.637 483.663ZM157.204 487.301C158.245 486.465 159.06 485.781 159.65 485.249C160.24 484.708 160.735 484.147 161.137 483.565C161.547 482.975 161.751 482.398 161.751 481.832C161.751 481.3 161.62 480.882 161.358 480.579C161.104 480.267 160.69 480.112 160.117 480.112C159.56 480.112 159.125 480.288 158.814 480.64C158.511 480.984 158.347 481.447 158.323 482.029H157.241C157.274 481.111 157.552 480.403 158.077 479.903C158.601 479.403 159.277 479.153 160.105 479.153C160.948 479.153 161.616 479.387 162.108 479.854C162.608 480.321 162.857 480.964 162.857 481.783C162.857 482.463 162.653 483.127 162.243 483.774C161.841 484.413 161.383 484.978 160.866 485.47C160.35 485.953 159.691 486.519 158.888 487.166H163.115V488.1H157.204V487.301ZM164.175 480.333V479.313H166.485V488.198H165.355V480.333H164.175ZM180.067 489.501H178.948V478.428H180.067V489.501ZM192.133 483.663C192.133 482.254 192.362 481.156 192.821 480.37C193.28 479.575 194.083 479.178 195.23 479.178C196.369 479.178 197.168 479.575 197.626 480.37C198.085 481.156 198.315 482.254 198.315 483.663C198.315 485.097 198.085 486.211 197.626 487.006C197.168 487.801 196.369 488.198 195.23 488.198C194.083 488.198 193.28 487.801 192.821 487.006C192.362 486.211 192.133 485.097 192.133 483.663ZM197.208 483.663C197.208 482.951 197.159 482.348 197.061 481.857C196.971 481.357 196.778 480.956 196.483 480.652C196.197 480.349 195.779 480.198 195.23 480.198C194.673 480.198 194.247 480.349 193.952 480.652C193.665 480.956 193.472 481.357 193.374 481.857C193.284 482.348 193.239 482.951 193.239 483.663C193.239 484.401 193.284 485.019 193.374 485.519C193.472 486.019 193.665 486.42 193.952 486.723C194.247 487.027 194.673 487.178 195.23 487.178C195.779 487.178 196.197 487.027 196.483 486.723C196.778 486.42 196.971 486.019 197.061 485.519C197.159 485.019 197.208 484.401 197.208 483.663ZM199.641 486.22V485.372L203.955 479.399H205.294V485.249H206.523V486.22H205.294V488.198H204.188V486.22H199.641ZM204.237 480.566L200.931 485.249H204.237V480.566ZM208.243 488.272C208.029 488.272 207.849 488.198 207.702 488.051C207.554 487.903 207.481 487.723 207.481 487.51C207.481 487.297 207.554 487.117 207.702 486.969C207.849 486.822 208.029 486.748 208.243 486.748C208.447 486.748 208.619 486.822 208.759 486.969C208.906 487.117 208.98 487.297 208.98 487.51C208.98 487.723 208.906 487.903 208.759 488.051C208.619 488.198 208.447 488.272 208.243 488.272ZM208.243 483.012C208.029 483.012 207.849 482.938 207.702 482.791C207.554 482.643 207.481 482.463 207.481 482.25C207.481 482.037 207.554 481.857 207.702 481.709C207.849 481.562 208.029 481.488 208.243 481.488C208.447 481.488 208.619 481.562 208.759 481.709C208.906 481.857 208.98 482.037 208.98 482.25C208.98 482.463 208.906 482.643 208.759 482.791C208.619 482.938 208.447 483.012 208.243 483.012ZM210.38 483.663C210.38 482.254 210.609 481.156 211.068 480.37C211.527 479.575 212.33 479.178 213.477 479.178C214.615 479.178 215.414 479.575 215.873 480.37C216.332 481.156 216.561 482.254 216.561 483.663C216.561 485.097 216.332 486.211 215.873 487.006C215.414 487.801 214.615 488.198 213.477 488.198C212.33 488.198 211.527 487.801 211.068 487.006C210.609 486.211 210.38 485.097 210.38 483.663ZM215.455 483.663C215.455 482.951 215.406 482.348 215.308 481.857C215.218 481.357 215.025 480.956 214.73 480.652C214.443 480.349 214.025 480.198 213.477 480.198C212.919 480.198 212.493 480.349 212.198 480.652C211.912 480.956 211.719 481.357 211.621 481.857C211.531 482.348 211.486 482.951 211.486 483.663C211.486 484.401 211.531 485.019 211.621 485.519C211.719 486.019 211.912 486.42 212.198 486.723C212.493 487.027 212.919 487.178 213.477 487.178C214.025 487.178 214.443 487.027 214.73 486.723C215.025 486.42 215.218 486.019 215.308 485.519C215.406 485.019 215.455 484.401 215.455 483.663ZM218.158 483.663C218.158 482.254 218.387 481.156 218.846 480.37C219.305 479.575 220.108 479.178 221.255 479.178C222.394 479.178 223.193 479.575 223.651 480.37C224.11 481.156 224.34 482.254 224.34 483.663C224.34 485.097 224.11 486.211 223.651 487.006C223.193 487.801 222.394 488.198 221.255 488.198C220.108 488.198 219.305 487.801 218.846 487.006C218.387 486.211 218.158 485.097 218.158 483.663ZM223.234 483.663C223.234 482.951 223.184 482.348 223.086 481.857C222.996 481.357 222.803 480.956 222.509 480.652C222.222 480.349 221.804 480.198 221.255 480.198C220.698 480.198 220.272 480.349 219.977 480.652C219.69 480.956 219.498 481.357 219.399 481.857C219.309 482.348 219.264 482.951 219.264 483.663C219.264 484.401 219.309 485.019 219.399 485.519C219.498 486.019 219.69 486.42 219.977 486.723C220.272 487.027 220.698 487.178 221.255 487.178C221.804 487.178 222.222 487.027 222.509 486.723C222.803 486.42 222.996 486.019 223.086 485.519C223.184 485.019 223.234 484.401 223.234 483.663ZM235.186 482.139C235.186 482.852 234.94 483.446 234.448 483.921C233.965 484.388 233.223 484.622 232.224 484.622H230.577V488.198H229.459V479.632H232.224C233.191 479.632 233.924 479.866 234.424 480.333C234.932 480.8 235.186 481.402 235.186 482.139ZM232.224 483.7C232.847 483.7 233.305 483.565 233.6 483.295C233.895 483.024 234.043 482.639 234.043 482.139C234.043 481.083 233.436 480.554 232.224 480.554H230.577V483.7H232.224ZM245.326 479.694V488.198H244.207V481.857L241.381 488.198H240.594L237.755 481.845V488.198H236.637V479.694H237.841L240.988 486.723L244.134 479.694H245.326Z" fill="#0D0D0D" fill-opacity="0.6"/>
<circle cx="52.2304" cy="470.078" r="23.5551" fill="#2952CC"/>
<path d="M58.518 463.263V474.766H55.716V467.868L53.1434 474.766H50.8821L48.2931 467.851V474.766H45.491V463.263H48.801L52.0291 471.227L55.2244 463.263H58.518Z" fill="white"/>
<defs>
<clipPath id="clip0_101_461">
<rect x="248.272" y="159.506" width="34.6184" height="26.2123" rx="13.1061" fill="white"/>
</clipPath>
</defs>
</svg>
